<?xml version="1.0" standalone="no"?>
<!DOCTYPE svg PUBLIC "-//W3C//DTD SVG 20010904//EN" "http://www.w3.org/TR/2001/REC-SVG-20010904/DTD/svg10.dtd">
<!-- Created using Krita: https://krita.org -->
<svg xmlns="http://www.w3.org/2000/svg" 
    xmlns:xlink="http://www.w3.org/1999/xlink"
    xmlns:krita="http://krita.org/namespaces/svg/krita"
    xmlns:sodipodi="http://sodipodi.sourceforge.net/DTD/sodipodi-0.dtd"
    width="777.6pt"
    height="777.6pt"
    viewBox="0 0 777.6 777.6">
<defs>
  <linearGradient id="gradient0" gradientUnits="objectBoundingBox" x1="-0.275161587835404" y1="-0.532882637500374" x2="2.3106337441342" y2="2.71453900432608" spreadMethod="pad">
   <stop stop-color="#2f3039" offset="0.265399992465973" stop-opacity="1"/>
   <stop stop-color="#45464d" offset="0.337999999523163" stop-opacity="1"/>
   <stop stop-color="#3e3f46" offset="0.366499990224838" stop-opacity="1"/>
   <stop stop-color="#2f3039" offset="0.399399995803833" stop-opacity="1"/>
   <stop stop-color="#2f3039" offset="0.595000028610229" stop-opacity="1"/>
   <stop stop-color="#45464d" offset="0.667599976062775" stop-opacity="1"/>
   <stop stop-color="#43444b" offset="0.717000007629395" stop-opacity="1"/>
   <stop stop-color="#3c3d45" offset="0.73470002412796" stop-opacity="1"/>
   <stop stop-color="#31323a" offset="0.747399985790253" stop-opacity="1"/>
   <stop stop-color="#2f3039" offset="0.748600006103516" stop-opacity="1"/>
  </linearGradient>
  <linearGradient id="gradient1" gradientUnits="objectBoundingBox" x1="-1.244662150328" y1="-1.53695216045176" x2="1.91141114798295" y2="1.86421582945607" spreadMethod="pad">
   <stop stop-color="#2f3039" offset="0.265399992465973" stop-opacity="1"/>
   <stop stop-color="#45464d" offset="0.337999999523163" stop-opacity="1"/>
   <stop stop-color="#3e3f46" offset="0.366499990224838" stop-opacity="1"/>
   <stop stop-color="#2f3039" offset="0.399399995803833" stop-opacity="1"/>
   <stop stop-color="#2f3039" offset="0.595000028610229" stop-opacity="1"/>
   <stop stop-color="#45464d" offset="0.667599976062775" stop-opacity="1"/>
   <stop stop-color="#43444b" offset="0.717000007629395" stop-opacity="1"/>
   <stop stop-color="#3c3d45" offset="0.73470002412796" stop-opacity="1"/>
   <stop stop-color="#31323a" offset="0.747399985790253" stop-opacity="1"/>
   <stop stop-color="#2f3039" offset="0.748600006103516" stop-opacity="1"/>
  </linearGradient>
 </defs>
<g id="Base" transform="matrix(0.72 0 0 0.72 0 0)" display="none" fill="none">
  <g id="group0" fill="none">
   <path id="shape0" transform="translate(243.5, 587.86)" fill="#ffc384" stroke="#231f20" stroke-width="5" stroke-linecap="round" stroke-linejoin="round" d="M264.74 0C232.38 0.5 126.84 8.24 106.5 15.02C86.17 21.8 81.32 45.04 74.55 48.91C67.77 52.78 31.95 86.67 20.33 183.5C8.71 280.33 0 499.81 0 499.81L423.76 499.81C423.76 499.81 398.63 372.31 396.7 325.83C394.76 279.35 395.02 202.93 386.33 176.79C377.64 150.65 401.23 69.24 401.23 69.24Z"/>
   <path id="shape1" transform="translate(299.02, 609.85)" opacity="0.3" fill="#231f20" stroke="#000000" stroke-opacity="0" stroke-width="0" stroke-linecap="square" stroke-linejoin="bevel" d="M10.05 153.64L55.42 191.43C55.42 191.43 66.73 109.33 64.59 75.28C62.45 41.23 38.93 29.13 33.58 22.35C28.23 15.57 35.09 4.82 39.64 0.87L39.09 0C28.3 9.59 24.23 23.96 19.03 26.93C16.28 28.5 8.75 35.01 0 48.66Z"/>
   <g id="group1" fill="none">
    <path id="shape2" transform="translate(221.144254786099, 636.590904836412)" fill="#ffc384" stroke="#231f20" stroke-width="5" stroke-linecap="round" stroke-linejoin="round" d="M124.406 451.089C122.176 400.509 126.826 347.389 124.586 296.809C121.866 235.189 138.716 167.969 134.486 94.8691C132.906 67.5891 134.936 29.3891 113.926 11.9191C103.146 2.9491 88.3157 -2.9509 75.0357 1.5391C63.7557 5.3491 56.0457 15.6791 50.1157 26.0091C37.8957 47.3091 30.1257 71.1491 27.3557 95.5491C25.6257 110.769 24.4457 116.659 24.4457 116.659C22.1957 138.259 12.0657 298.409 9.81575 320.009C9.81575 320.009 0.865745 321.229 0.0757452 332.309C-0.714255 343.389 4.93575 350.029 4.93575 350.029L5.93575 451.089Z"/>
   </g>
   <path id="shape3" transform="translate(555.05, 667.2)" opacity="0.3" fill="#231f20" stroke="#231f20" stroke-width="4" stroke-linecap="round" stroke-linejoin="round" d="M44.77 60.23C59.84 70.87 74.77 97.45 74.77 97.45C69.41 81.34 76.31 44.26 82.4 18.16L84.15 0L51.76 6.1L0 37.93L8.75 44.31C12.79 43.07 29.69 49.59 44.77 60.23Z"/>
   <path id="shape4" transform="translate(404.83, 584.27)" opacity="0.3" fill="#231f20" stroke="#000000" stroke-opacity="0" stroke-width="0" stroke-linecap="square" stroke-linejoin="bevel" d="M0 10.58C21.39 13.13 72.41 15.51 70.19 24.54C67.97 33.57 63.84 44.24 49.74 47.93C35.65 51.63 0.63 52.1 5.71 66.83C7.58 72.26 22.18 66.28 33.12 73.48C51.86 85.81 70.19 110.9 70.19 110.9C70.19 110.9 48.98 80.38 66.08 56.26C83.18 32.14 106.24 7.15 106.24 7.15L111.89 0C111.89 0 68.92 7.8 46.58 7.85C24.24 7.9 0 10.58 0 10.58Z"/>
   <path id="shape5" transform="translate(345.558355986171, 825.84642232135)" opacity="0.3" fill="#231f20" stroke="#000000" stroke-opacity="0" stroke-width="0" stroke-linecap="square" stroke-linejoin="bevel" d="M142.472 71.6736C126.352 84.7336 88.9316 97.9036 73.9616 96.6636C58.9916 95.4236 29.7016 86.4736 26.7016 84.5336C23.7016 82.5936 6.78164 136.304 10.9616 154.894C15.1516 173.484 18.3516 189.524 17.2916 199.144C16.2316 208.764 37.2516 256.324 37.2516 256.324L0.631644 256.324C0.631644 256.324 -0.668356 174.494 0.461644 114.694C1.58164 54.8936 6.34164 4.50358 6.74164 0.263578C7.14164 -3.97642 12.6616 44.1836 18.0116 55.1436C23.3616 66.1036 73.6116 76.1736 88.7916 84.0536C107.362 93.7036 142.472 71.6736 142.472 71.6736Z"/>
   <g id="group2" fill="none">
    <g id="group3" fill="none">
     <path id="shape6" transform="translate(398.751771598032, 703.429408803773)" fill="#231f20" stroke="#000000" stroke-opacity="0" stroke-width="0" stroke-linecap="square" stroke-linejoin="bevel" d="M0.218228 0.840591C5.79823 4.04059 11.3582 7.17059 16.5582 10.9706C21.0882 14.2706 25.3282 17.9406 29.6782 21.4706C34.2582 25.1906 39.0082 28.7006 44.1782 31.5506C47.0282 33.1206 49.9882 34.4906 53.0082 35.6806C55.9382 36.8306 58.6582 38.2806 61.3382 39.9406C67.2482 43.6106 73.1382 48.0906 80.2282 49.0606C82.2982 49.3406 82.7082 46.4806 80.6082 46.2206C74.3982 45.4306 69.0482 41.5506 63.8782 38.3306C61.2082 36.6706 58.4882 35.0706 55.5782 33.8706C52.5082 32.6106 49.4482 31.4306 46.5082 29.8906C36.3082 24.5506 28.1182 16.5306 18.9682 9.69059C13.4082 5.54059 7.31823 1.84059 0.568228 0.0205912C0.0782284 -0.129409 -0.231772 0.580591 0.218228 0.840591Z"/>
    </g>
   </g>
   <path id="shape7" transform="translate(372.26, 871.07)" fill="none" stroke="#231f20" stroke-width="4" stroke-linecap="round" stroke-linejoin="round" d="M150.08 0C118.13 34.38 69.71 48.76 44.54 32.85C19.37 16.94 8.71 21.88 0 17.48"/>
   <path id="shape8" transform="translate(579.47, 878.78)" fill="none" stroke="#231f20" stroke-width="4" stroke-linecap="round" stroke-linejoin="round" d="M0 0C7.75 10.2 15.04 30.73 30.28 31.6C45.52 32.47 60.27 12.08 59.72 0"/>
   <path id="shape9" transform="translate(503.01, 757.27)" opacity="0.3" fill="#231f20" stroke="#231f20" stroke-width="4" stroke-linecap="round" stroke-linejoin="round" d="M0 8.99C2.31 10.25 16.71 16.17 24.12 17.59C31.53 19.01 45.75 13.29 45.75 13.29L55.01 0C55.01 0 51.21 10.14 39.72 8.91C28.23 7.68 23.07 7.8 19.79 8.91C16.5 10.02 0 8.99 0 8.99Z"/>
   <g id="group4" fill="none">
    <g id="group5" fill="none">
     <path id="shape10" transform="translate(480.466594087112, 743.812538505696)" fill="#231f20" stroke="#000000" stroke-opacity="0" stroke-width="0" stroke-linecap="square" stroke-linejoin="bevel" d="M0.203406 10.7475C6.36341 14.6475 12.6034 18.3875 18.9334 22.0175C21.8934 23.7175 24.8434 25.7175 28.0634 26.8975C31.2034 28.0475 34.1634 27.4375 37.1334 26.1375C40.0634 24.8475 42.8434 23.5175 45.9834 22.7575C49.0634 22.0075 52.2334 21.7075 55.4034 21.8175C58.5834 21.9275 61.6934 22.5075 64.7234 23.4775C66.2034 23.9475 67.7734 24.4475 69.3334 24.0375C70.6334 23.6875 71.6834 22.8275 72.5034 21.7875C73.6734 20.3175 74.5634 18.6075 75.5334 16.9975C76.5534 15.2975 77.5834 13.6075 78.6034 11.9075C80.7034 8.43746 82.9634 5.01746 84.2034 1.14746C84.4834 0.267461 83.2934 -0.382539 82.6734 0.257461C80.2734 2.69746 78.5434 5.62746 76.7834 8.55746C74.9934 11.5275 73.2134 14.4975 71.4234 17.4675C70.8034 18.4975 70.2134 19.7675 69.2334 20.5075C68.0234 21.4175 66.4234 20.5975 65.1634 20.2075C62.2734 19.3175 59.2734 18.7975 56.2534 18.6275C50.3534 18.2875 44.4234 19.3875 39.0134 21.7475C36.3534 22.9075 33.5934 24.8575 30.5534 24.4275C29.0634 24.2175 27.6834 23.5375 26.3634 22.8575C24.7734 22.0375 23.1934 21.2075 21.6034 20.3775C14.6634 16.7775 7.69341 13.3075 0.613406 10.0275C0.143406 9.80746 -0.256594 10.4575 0.203406 10.7475Z"/>
    </g>
   </g>
   <g id="group6" fill="none">
    <g id="group7" fill="none">
     <path id="shape11" transform="translate(526.482786524787, 778.843754879115)" fill="#231f20" stroke="#000000" stroke-opacity="0" stroke-width="0" stroke-linecap="square" stroke-linejoin="bevel" d="M0.467213 6.36625C5.62721 7.86625 10.7372 8.39625 16.0772 7.61625C18.6772 7.23625 21.2272 6.46625 23.6572 5.46625C24.8672 4.96625 26.0672 4.42625 27.2172 3.78625C28.3272 3.17625 29.5172 2.49625 29.6472 1.14625C29.6972 0.656245 29.2672 0.246245 28.8472 0.0962451C27.8072 -0.263755 26.6972 0.466245 25.8072 0.966245C24.7172 1.56625 23.5972 2.13625 22.4572 2.62625C20.2272 3.58625 17.8772 4.24625 15.5072 4.77625C10.7772 5.83625 5.57721 6.09625 0.817213 5.10625C-0.00278652 4.92625 -0.352787 6.12625 0.467213 6.36625Z"/>
    </g>
   </g>
   <path id="shape12" transform="translate(439.892972181848, 878.19872732877)" fill="#b8775d" stroke="#000000" stroke-opacity="0" stroke-width="0" stroke-linecap="square" stroke-linejoin="bevel" d="M20.377 0.581273C0.817028 -3.66873 -6.99297 16.7013 7.40703 19.0713C21.797 21.4513 44.617 5.85127 20.377 0.581273Z"/>
   <path id="shape13" transform="translate(603.870652111125, 885.154704264983)" fill="#b8775d" stroke="#000000" stroke-opacity="0" stroke-width="0" stroke-linecap="square" stroke-linejoin="bevel" d="M9.18935 0.245296C-3.66065 -2.2047 -2.45065 14.5053 9.18935 14.5053C20.8293 14.5053 24.1593 3.0953 9.18935 0.245296Z"/>
   <g id="group8" fill="none">
    <g id="group9" fill="none">
     <path id="shape14" transform="translate(406.267649835029, 641.915389412376)" fill="#231f20" stroke="#000000" stroke-opacity="0" stroke-width="0" stroke-linecap="square" stroke-linejoin="bevel" d="M1.19235 7.23461C5.12235 6.23461 9.50235 6.20461 13.5324 6.01461C20.1424 5.70461 26.7524 5.45461 33.3624 5.13461C39.6024 4.82461 45.8624 4.56461 52.0924 4.09461C55.7224 3.82461 59.6624 3.83461 63.0224 2.28461C64.1024 1.78461 63.5924 -0.105389 62.4024 0.00461059C51.9924 0.964611 41.5324 1.66461 31.1024 2.35461C24.7724 2.77461 18.4524 3.29461 12.1424 3.88461C8.37235 4.23461 4.34235 4.33461 0.67235 5.37461C-0.50765 5.70461 -0.00764984 7.54461 1.19235 7.23461Z"/>
    </g>
   </g>
   <g id="group10" fill="none">
    <g id="group11" fill="none">
     <path id="shape15" transform="translate(448.45046438383, 630.600303290821)" fill="#231f20" stroke="#000000" stroke-opacity="0" stroke-width="0" stroke-linecap="square" stroke-linejoin="bevel" d="M1.19954 4.3497C5.98954 3.2797 11.0195 3.8097 15.8995 3.8297C19.3495 3.8397 24.1795 4.3997 27.1795 2.3697C28.2195 1.6597 27.7695 0.209697 26.5595 0.0896967C22.2795 -0.320303 17.3895 0.799697 13.0295 0.949697C8.90954 1.0897 4.65954 1.3597 0.679536 2.4997C-0.510464 2.8297 -0.0104644 4.6197 1.19954 4.3497Z"/>
    </g>
   </g>
   <g id="group12" fill="none">
    <g id="group13" fill="none">
     <path id="shape16" transform="translate(471.958390694318, 619.360690252909)" fill="#231f20" stroke="#000000" stroke-opacity="0" stroke-width="0" stroke-linecap="square" stroke-linejoin="bevel" d="M1.19161 3.28931C3.71161 2.75931 5.80161 3.12931 8.29161 3.42931C10.4816 3.69931 12.8916 3.64931 14.6116 2.15931C15.2816 1.57931 14.9516 0.26931 14.0716 0.10931C11.8716 -0.29069 9.62161 0.54931 7.34161 0.36931C4.98161 0.18931 2.92161 0.65931 0.681609 1.41931C-0.498391 1.82931 -0.0283907 3.54931 1.19161 3.28931Z"/>
    </g>
   </g>
   <g id="group14" fill="none">
    <g id="group15" fill="none">
     <path id="shape17" transform="translate(349.440577610059, 840.116857681138)" fill="#231f20" stroke="#000000" stroke-opacity="0" stroke-width="0" stroke-linecap="square" stroke-linejoin="bevel" d="M0.0294224 0.843142C4.86942 18.2231 9.69942 35.6731 20.8794 50.2031C23.8194 54.0231 26.9394 57.5931 28.3294 62.3031C29.2894 65.5431 29.7294 68.8931 30.8694 72.0831C32.3994 76.3731 35.4494 80.5131 40.4094 78.3831C41.8294 77.7731 41.0194 75.6331 39.6594 75.6131C33.5394 75.5331 33.2894 65.7631 31.8694 61.3131C29.7294 54.5931 24.3894 49.9731 20.2794 44.4931C10.6094 31.6131 5.75942 15.7431 1.32942 0.473142C1.08942 -0.356858 -0.210578 -0.00685768 0.0294224 0.843142Z"/>
    </g>
   </g>
   <g id="group16" fill="none">
    <g id="group17" fill="none">
     <path id="shape18" transform="translate(381.276327481945, 962.138333470721)" fill="#231f20" stroke="#000000" stroke-opacity="0" stroke-width="0" stroke-linecap="square" stroke-linejoin="bevel" d="M10.5937 109.922C4.66367 98.4317 1.03367 85.7817 1.83367 72.7617C2.37367 63.9917 4.90367 55.6017 7.34367 47.2117C8.29367 43.9417 9.18367 40.6717 9.65367 37.3017C10.5337 31.0117 10.2737 24.8717 13.2937 19.0817C15.9737 13.9417 23.5137 3.70167 14.9637 0.101667C13.5737 -0.488333 12.4737 1.64167 13.5237 2.58167C17.8137 6.46167 12.1037 13.3317 10.0537 17.1917C7.49367 22.0017 6.99367 26.8617 6.68367 32.2217C6.23367 39.9017 4.20367 47.0417 2.41367 54.4817C-2.34633 74.2817 -0.0963275 92.5117 9.43367 110.612C9.83367 111.382 10.9937 110.702 10.5937 109.922Z"/>
    </g>
   </g>
   <g id="group18" fill="none">
    <g id="group19" fill="none">
     <path id="shape19" transform="translate(389.972590984807, 936.083173047408)" fill="#231f20" stroke="#000000" stroke-opacity="0" stroke-width="0" stroke-linecap="square" stroke-linejoin="bevel" d="M0.707409 0.846827C-0.642591 7.06683 -0.252591 13.4068 3.56741 18.6868C4.17741 19.5268 5.78741 19.0668 5.37741 17.9268C3.47741 12.6268 2.08741 7.13683 2.96741 1.47683C3.18741 0.016827 1.02741 -0.653173 0.707409 0.846827Z"/>
    </g>
   </g>
   <g id="group20" fill="none">
    <g id="group21" fill="none">
     <g id="group22" fill="none">
      <path id="shape20" transform="translate(263.860888415723, 932.26633262969)" fill="#231f20" stroke="#000000" stroke-opacity="0" stroke-width="0" stroke-linecap="square" stroke-linejoin="bevel" d="M1.03911 0.763667C-0.360888 4.25367 -0.150888 6.98367 0.529112 10.6137C1.74911 17.2337 1.25911 23.7237 1.01911 30.4137C0.969112 31.6737 2.83911 31.8837 3.17911 30.7037C4.96911 24.6337 5.40911 18.5137 4.26911 12.2737C3.59911 8.63367 2.19911 5.07367 3.18911 1.34367C3.56911 -0.0663326 1.55911 -0.536333 1.03911 0.763667Z"/>
     </g>
    </g>
    <g id="group23" fill="none">
     <g id="group24" fill="none">
      <path id="shape21" transform="translate(262.042136316503, 860.27)" fill="#231f20" stroke="#000000" stroke-opacity="0" stroke-width="0" stroke-linecap="square" stroke-linejoin="bevel" d="M3.04786 0.85C2.73786 6.06 0.327864 10.88 0.0278637 16.06C-0.272136 21.24 1.93786 26.11 2.45786 31.19C3.51786 41.37 0.407864 51.33 2.93786 61.55C3.21786 62.69 4.95786 62.43 4.96786 61.28C4.99786 56.19 4.45786 51.13 4.60786 46.03C4.75786 41.09 5.69786 35.94 5.12786 31.03C4.53786 25.98 2.07786 21.21 2.17786 16.07C2.27786 10.91 4.59786 6.03 4.81786 0.86C4.86786 -0.29 3.11786 -0.28 3.04786 0.85Z"/>
     </g>
    </g>
   </g>
   <g id="group25" fill="none">
    <path id="shape22" transform="translate(463.547982338624, 536.74)" fill="#ffc384" stroke="#231f20" stroke-width="5" stroke-linecap="round" stroke-linejoin="round" d="M106.682 169.63C93.872 174.62 91.532 184.63 78.612 189.32C70.072 192.42 60.072 193.33 60.072 193.33C60.072 193.33 42.122 192.77 28.512 178.3C17.592 166.69 -9.76798 129.94 3.60202 108.56C4.49202 107.14 11.462 97.36 22.162 82.51C23.262 80.99 23.832 77.14 25.022 75.57C26.392 73.76 30.472 72.48 31.892 70.61C36.122 65.02 37.332 58.48 41.662 52.81C46.502 46.47 54.442 44.39 58.802 38.76C67.532 27.49 74.652 15.18 77.552 12.03L94.482 0L125.192 141.94C125.192 141.94 122.932 160.72 120.212 164.14C113.592 172.45 106.682 169.63 106.682 169.63Z"/>
    <g id="group26" fill="none">
     <path id="shape23" transform="translate(475.01, 522.68)" opacity="0.3" fill="#231f20" stroke="#000000" stroke-opacity="0" stroke-width="0" stroke-linecap="square" stroke-linejoin="bevel" d="M99.63 6.14L84.16 0C81.27 7.13 70.8 20.56 58.16 35.75L58.16 35.75L58.47 54.28C58.47 54.28 48.37 69.73 55.5 86.36C62.63 102.99 69.46 138.67 69.46 138.67C69.46 138.67 51.89 193.89 38.96 196.85C26.09 199.8 0.28 169.79 0 169.48C1.26 171.58 2.61 173.77 4.09 176.06C29.91 216.08 58.31 210.92 76.39 198.01C82.43 193.7 86.12 189.25 93.3 183.69C96.88 180.92 98.77 185.68 105.3 180.92C115.41 173.54 124.8 160.57 124.8 160.57Z"/>
     <path id="shape24" transform="translate(462.953819716105, 402.356221073415)" fill="#ffc283" stroke="#000000" stroke-opacity="0" stroke-width="0" stroke-linecap="square" stroke-linejoin="bevel" d="M81.5262 14.5638C81.5262 14.5638 41.2462 -10.4262 20.9062 5.06378C0.57618 20.5538 -10.7038 87.8438 14.4662 121.734C39.6362 155.624 92.5062 152.054 95.8062 128.824C99.1062 105.574 81.5262 14.5638 81.5262 14.5638Z"/>
     <path id="shape25" transform="translate(482.830454961134, 430.595781054758)" opacity="0.3" fill="#231f20" stroke="#000000" stroke-opacity="0" stroke-width="0" stroke-linecap="square" stroke-linejoin="bevel" d="M40.7695 89.0942C26.5095 71.5142 26.1695 75.8942 30.4495 59.6642C34.7295 43.4342 45.5195 55.9642 38.3995 33.8442C31.2795 11.7242 21.6395 -4.87578 9.28955 1.30422C-3.07045 7.48422 0.469545 24.7342 0.469545 24.7342C0.469545 24.7342 7.69955 7.24422 18.6795 11.5242C29.6595 15.8042 17.2495 35.4342 16.5295 52.5442C15.8095 69.6442 40.7695 89.0942 40.7695 89.0942Z"/>
     <path id="shape26" transform="translate(542.736784654087, 202.617414402427)" fill="#ffc384" stroke="#231f20" stroke-width="5" stroke-linecap="round" stroke-linejoin="round" d="M310.773 172.983C311.463 213.653 318.043 458.943 315.133 476.373C312.233 493.803 279.783 492.513 279.783 492.513C279.783 492.513 271.073 508.003 251.703 519.623C232.333 531.243 151.973 530.273 139.383 525.433C126.793 520.593 116.143 500.253 107.433 499.293C98.7232 498.323 61.9032 519.493 38.6632 486.563C15.4232 453.643 -0.0467847 244.633 1.88322 193.313C2.66322 172.643 -2.59678 139.453 1.72322 117.533C4.15322 105.203 19.1332 82.4126 23.4932 70.6226C30.6132 51.3626 35.9532 54.7826 50.3032 39.3626C89.0332 -2.27741 151.003 -2.27741 187.793 1.60259C224.583 5.47259 268.163 48.0826 280.743 61.6326C293.333 75.1926 288.383 85.3526 293.223 92.1226C298.063 98.9026 306.883 106.173 307.853 111.013C308.833 115.853 310.313 145.883 310.773 172.983Z"/>
     <path id="shape27" transform="translate(762.589561433719, 425.303731810359)" opacity="0.3" fill="#231f20" stroke="#231f20" stroke-width="4" stroke-linecap="round" stroke-linejoin="round" d="M0.820439 0.0562682C0.950439 -1.14373 -1.68956 17.1663 1.87044 24.7663C5.43044 32.3663 8.42044 45.6763 19.5904 56.3663C30.7604 67.0563 45.6704 66.8763 45.6704 66.8763C45.6704 66.8763 23.3404 63.8463 11.5104 33.1963C5.93044 18.7163 7.64044 16.1363 7.64044 16.1363C7.64044 16.1363 -0.129561 8.60627 0.820439 0.0562682Z"/>
     <path id="shape28" transform="translate(656.36, 431.02)" opacity="0.3" fill="#231f20" stroke="#231f20" stroke-width="4" stroke-linecap="round" stroke-linejoin="round" d="M43.47 0L35.44 7.85C35.44 7.85 33.69 31.93 25.08 41.06C16.48 50.19 0 59.86 0 59.86C0 59.86 4.5 64.68 15.19 58.27C25.88 51.85 42.41 41.07 40.54 18.71C40.26 15.33 40.41 12.41 42.42 11.11C44.43 9.78 44.46 2.85 43.47 0Z"/>
     <path id="shape29" transform="translate(569.83, 654.34)" opacity="0.3" fill="#231f20" stroke="#000000" stroke-opacity="0" stroke-width="0" stroke-linecap="square" stroke-linejoin="bevel" d="M280.78 26.85C273.65 29.08 258.24 30.79 258.24 30.79C258.24 30.79 258.96 17.67 254.82 23.85C250.68 30.03 219.12 51 178.73 50.8C138.33 50.6 118.61 55.07 109.58 46.99C100.55 38.91 84.02 22.78 84.02 22.78L82.83 35.22C82.83 35.22 46.85 40.72 32.59 34.54C18.33 28.36 0.41 1.99 0.41 1.99C0.41 1.99 0.25 2.19 0 2.57C3.58 17.63 7.46 29.01 11.58 34.85C34.82 67.77 71.63 46.61 80.35 47.58C89.06 48.55 99.72 68.88 112.3 73.72C124.89 78.56 205.25 79.53 224.62 67.91C243.99 56.29 252.7 40.8 252.7 40.8C252.7 40.8 285.14 42.09 288.05 24.66C288.52 21.83 288.74 12.99 288.78 0C287.98 11.11 285.79 25.28 280.78 26.85Z"/>
     <path id="shape30" transform="translate(771.41, 534.39)" opacity="0.3" fill="#231f20" stroke="#231f20" stroke-width="4" stroke-linecap="round" stroke-linejoin="round" d="M0 10.66C0 10.66 7.53 13.34 20.14 19.04C32.75 24.74 45.96 36.14 50.22 38.26C54.48 40.38 55.54 43.37 55.54 43.37C55.54 43.37 47.97 32.24 40.72 24.93C33.47 17.61 2.16 0 2.16 0Z"/>
     <path id="shape31" transform="translate(625.36, 532.4)" opacity="0.3" fill="#231f20" stroke="#231f20" stroke-width="4" stroke-linecap="round" stroke-linejoin="round" d="M0 47.02C0 47.02 12.85 37.25 22.22 28.43C31.59 19.61 65 13.47 68.61 11.73C72.22 9.99 82.52 17.26 85.29 16.68C88.05 16.1 73.43 4.91 73.43 4.91L73.91 0C73.91 0 40.7 15.3 35.15 16.33C29.6 17.36 6.09 31.12 4.7 34.1C3.31 37.07 0 47.02 0 47.02Z"/>
     <path id="shape32" transform="translate(698.78, 354.3)" fill="none" stroke="#231f20" stroke-width="4" stroke-linecap="round" stroke-linejoin="round" d="M49.39 0C49.39 7.75 47.45 26.14 43.58 36.79C39.71 47.44 44.55 136.52 46.48 139.43C48.42 142.33 67.78 140.4 72.62 146.21C77.46 152.02 72.62 185.91 72.62 190.75C72.62 195.59 32.92 197.53 22.27 196.56C11.62 195.59 0 183 0 183L1.89 163.84"/>
     <path id="shape33" transform="translate(606.8, 530.92)" fill="none" stroke="#231f20" stroke-width="4" stroke-linecap="round" stroke-linejoin="round" d="M91.99 0C79.29 5.58 31.96 23.81 25.18 32.52C18.4 41.23 15.5 65.44 11.62 73.19C7.75 80.94 0 97.4 0 101.27"/>
     <path id="shape34" transform="translate(773.56, 534.4)" fill="none" stroke="#231f20" stroke-width="4" stroke-linecap="round" stroke-linejoin="round" d="M0 0C0 0 34.64 22.27 43.36 28.08C52.08 33.89 54.01 46.17 55.95 52.13C57.89 58.1 66.6 68.75 68.54 76.49C70.48 84.24 68.54 90.05 68.54 90.05"/>
     <path id="shape35" transform="translate(595.722287575775, 293.98934130701)" fill="#231f20" stroke="#231f20" stroke-width="0.75" stroke-linecap="round" stroke-linejoin="round" d="M80.5677 2.14066C84.0077 8.16066 91.3277 24.0907 91.7577 27.9607C92.1877 31.8307 48.2077 29.1107 33.5777 34.7007C18.9477 40.2907 4.09771 48.4707 4.09771 48.4707C4.09771 48.4707 0.437712 32.9807 0.00771242 31.6907C-0.422288 30.4007 17.2177 13.1907 30.5577 4.58066C43.8977 -4.02934 80.5677 2.14066 80.5677 2.14066Z"/>
     <path id="shape36" transform="translate(776.04, 297.719618184717)" fill="#231f20" stroke="#231f20" stroke-width="0.75" stroke-linecap="round" stroke-linejoin="round" d="M7.32 0.570382L0 31.9904C0 31.9904 22.38 28.5504 36.58 29.8404C50.78 31.1304 59.93 41.0304 59.93 41.0304L64.56 23.3904C64.56 23.3904 47.78 1.87038 37.02 0.580382C26.25 -0.719618 7.32 0.570382 7.32 0.570382Z"/>
     <path id="shape37" transform="translate(644.705971055864, 385.928415596331)" fill="#231f20" stroke="#231f20" stroke-width="2" stroke-linecap="round" stroke-linejoin="round" d="M16.934 0.0015844C-5.16597 0.311584 -6.16597 49.7016 17.074 50.3516C40.324 51.0016 40.964 -0.328416 16.934 0.0015844Z"/>
     <path id="shape38" transform="translate(786.946272644842, 390.328618295571)" fill="#231f20" stroke="#231f20" stroke-width="2" stroke-linecap="round" stroke-linejoin="round" d="M13.9737 0.0013817C-4.26627 0.251382 -5.08627 41.0314 14.0937 41.5614C33.2637 42.0914 33.8037 -0.278618 13.9737 0.0013817Z"/>
     <path id="shape39" transform="translate(652.11, 411.11)" fill="none" stroke="#231f20" stroke-width="4" stroke-linecap="round" stroke-linejoin="round" d="M48.19 0C48.19 0 50.35 20.65 39.7 27.75C39.7 27.75 42.6 67.13 0 81.33"/>
     <path id="shape40" transform="translate(764.461438980461, 413.69)" fill="none" stroke="#231f20" stroke-width="4" stroke-linecap="round" stroke-linejoin="round" d="M2.11856 0C2.11856 0 -4.55144 18.72 5.77856 27.76C5.77856 27.76 7.18856 65.59 43.7986 78.5"/>
    </g>
    <g id="group27" fill="none">
     <g id="group28" fill="none">
      <path id="shape41" transform="translate(557.229919001717, 694.975843618197)" fill="#231f20" stroke="#000000" stroke-opacity="0" stroke-width="0" stroke-linecap="square" stroke-linejoin="bevel" d="M0.570081 6.67416C6.06008 8.45416 11.0601 12.3542 17.0601 12.2742C22.8701 12.1942 28.8401 7.31416 29.9901 1.66416C30.2601 0.334156 28.7801 -0.525844 27.7601 0.364156C25.3101 2.51416 23.9601 5.68416 21.0801 7.40416C18.7201 8.80416 16.0801 8.93416 13.4401 8.50416C9.22008 7.80416 5.17008 6.09416 1.00008 5.12416C-0.019919 4.88416 -0.419919 6.35416 0.570081 6.67416Z"/>
     </g>
    </g>
    <path id="shape42" transform="translate(697.718803491563, 249.36140037594)" opacity="0.3" fill="#231f20" stroke="#000000" stroke-opacity="0" stroke-width="0" stroke-linecap="square" stroke-linejoin="bevel" d="M35.6812 1.0286C26.0912 3.0186 14.1212 -0.4114 5.5412 1.0286C-3.0388 2.4686 -0.918803 7.6286 6.8712 6.6986C14.6712 5.7686 23.7312 11.4986 31.4712 9.8186C39.2112 8.1386 51.8812 6.6786 54.0512 3.2786C56.2212 -0.1314 44.8912 -0.8814 35.6812 1.0286Z"/>
    <path id="shape43" transform="translate(689.02, 269.897513689427)" opacity="0.3" fill="#231f20" stroke="#000000" stroke-opacity="0" stroke-width="0" stroke-linecap="square" stroke-linejoin="bevel" d="M0 7.77249C15.58 10.0225 31.24 24.1825 40.17 24.1825C49.1 24.1825 54.77 23.3525 63.26 15.9725C71.76 8.59249 74.86 -1.71751 83.31 3.17249C83.31 3.17249 78.99 -5.00751 61.38 4.90249C43.77 14.8125 43.9 16.1425 31.16 9.06249C18.41 1.99249 0 7.77249 0 7.77249Z"/>
    <g id="group29" fill="none">
     <g id="group30" fill="none">
      <path id="shape44" transform="translate(676.820559889508, 269.61534069786)" fill="#231f20" stroke="#000000" stroke-opacity="0" stroke-width="0" stroke-linecap="square" stroke-linejoin="bevel" d="M1.00944 10.9247C10.6194 7.27466 21.2894 5.98466 31.3994 8.19466C36.5694 9.32466 41.4594 11.3347 46.2094 13.6047C49.4794 15.1647 52.6694 16.3347 56.3494 15.9047C63.9594 15.0147 69.5594 9.04466 76.2594 5.96466C85.4994 1.72466 95.1494 4.23466 103.039 9.93466C104.729 11.1547 106.739 8.47466 105.249 7.06466C99.4294 1.56466 90.8194 -0.735341 82.9594 0.204659C74.0894 1.26466 68.1894 7.29466 60.3994 10.8747C54.4294 13.6147 50.0194 11.2947 44.4394 8.92466C40.0794 7.07466 35.6094 6.01466 30.9294 5.42466C20.4994 4.11466 10.3094 5.27466 0.56944 9.30466C-0.42056 9.71466 -0.0205599 11.3147 1.00944 10.9247Z"/>
     </g>
    </g>
    <g id="group31" fill="none">
     <g id="group32" fill="none">
      <path id="shape45" transform="translate(714.044403043303, 249.298779753636)" fill="#231f20" stroke="#000000" stroke-opacity="0" stroke-width="0" stroke-linecap="square" stroke-linejoin="bevel" d="M0.275597 7.48122C6.7556 11.1612 13.3356 11.6912 20.6056 10.2512C24.7656 9.43122 28.8056 8.05122 32.8256 6.71122C36.7856 5.38122 41.3456 4.47122 44.7756 2.03122C45.5856 1.45122 45.3956 -0.0487798 44.2256 0.00122025C37.6856 0.31122 30.9656 4.19122 24.7356 6.09122C17.1256 8.42122 8.2756 10.4612 0.855597 6.49122C0.205597 6.15122 -0.354403 7.12122 0.275597 7.48122Z"/>
     </g>
    </g>
    <g id="group33" fill="none">
     <g id="group34" fill="none">
      <path id="shape46" transform="translate(695.545653954769, 254.542592178046)" fill="#231f20" stroke="#000000" stroke-opacity="0" stroke-width="0" stroke-linecap="square" stroke-linejoin="bevel" d="M0.724346 3.18741C5.39435 2.54741 10.1843 3.40741 14.8543 2.93741C16.0543 2.81741 16.2843 1.28741 15.1343 0.857408C10.2443 -0.972592 5.10435 0.457408 0.404346 2.06741C-0.305654 2.31741 -0.00565395 3.28741 0.724346 3.18741Z"/>
     </g>
    </g>
    <g id="group35" fill="none">
     <g id="group36" fill="none">
      <path id="shape47" transform="translate(624.393331537567, 427.674364951532)" fill="#231f20" stroke="#000000" stroke-opacity="0" stroke-width="0" stroke-linecap="square" stroke-linejoin="bevel" d="M1.37667 3.28564C3.40667 2.08564 5.87667 1.89564 8.13667 2.48564C9.27667 2.77564 10.3367 3.26564 11.2967 3.94564C11.7367 4.26564 12.1467 4.63564 12.5167 5.02564C12.7067 5.23564 12.8867 5.44564 13.0467 5.67564C13.1267 5.79564 13.1967 5.92564 13.2767 6.04564C13.3367 6.15564 13.4467 6.56564 13.4067 6.20564C13.6267 5.81564 13.8467 5.43564 14.0767 5.04564C11.8967 6.34564 9.76667 7.75564 7.65667 9.17564C6.59667 9.88564 5.52667 10.5756 4.48667 11.3056C3.41667 12.0556 2.26667 12.7356 1.60667 13.8856C1.10667 14.7756 1.93667 15.5656 2.80667 15.4456C4.07667 15.2756 5.16667 14.4356 6.22667 13.7356C7.25667 13.0656 8.26667 12.3656 9.28667 11.6756C11.3667 10.2756 13.4367 8.85564 15.4367 7.35564C16.0767 6.87564 16.4167 5.87564 15.7067 5.24564C15.2067 4.79564 14.8367 4.15564 14.3867 3.64564C13.8967 3.09564 13.3367 2.61564 12.7367 2.17564C11.5767 1.31564 10.2167 0.695635 8.82667 0.345635C5.98667 -0.374365 2.89667 0.015635 0.436668 1.65564C-0.563332 2.33564 0.326668 3.89564 1.37667 3.28564Z"/>
     </g>
    </g>
    <path id="shape48" transform="translate(463.374653404939, 402.773120361123)" fill="none" stroke="#231f20" stroke-width="5" stroke-linecap="round" stroke-linejoin="round" d="M88.2853 141.357C89.6353 140.447 88.2053 145.207 82.8953 145.387C72.1753 145.737 53.2353 147.007 47.6953 143.987C35.8053 140.677 20.3153 129.737 15.9353 122.537C2.53535 100.527 -1.43465 85.7969 0.435347 53.9569C2.29535 22.1069 14.1253 7.03688 24.2553 2.33688C34.3853 -2.36312 59.4153 -0.71312 81.1153 14.1469"/>
    <g id="group37" fill="none">
     <g id="group38" fill="none">
      <path id="shape49" transform="translate(823.358908589686, 425.735747697697)" fill="#231f20" stroke="#000000" stroke-opacity="0" stroke-width="0" stroke-linecap="square" stroke-linejoin="bevel" d="M6.94109 0.174252C5.84109 -0.0257477 4.77109 -0.0457477 3.67109 0.0742523C2.49109 0.204252 1.35109 0.594252 0.611091 1.56425C-0.258909 2.70425 -0.158909 4.32425 0.651091 5.46425C1.57109 6.76425 3.06109 7.48425 4.40109 8.26425C5.21109 8.73425 6.02109 9.23425 6.86109 9.66425C7.29109 9.88425 7.72109 10.1143 8.15109 10.3343C8.41109 10.4643 8.66109 10.5943 8.94109 10.6543C9.09109 10.6843 9.28109 10.7243 9.43109 10.7243C9.54109 10.7143 9.65109 10.6943 9.75109 10.6843C10.0511 10.5343 10.1311 10.5043 9.98109 10.6043C10.4711 10.4943 10.8111 9.89425 10.6511 9.42425C10.6611 9.45425 10.7111 9.72425 10.6211 9.34425C10.5811 9.18425 10.5611 9.03425 10.4811 8.89425C10.3511 8.67425 10.1311 8.45425 9.94109 8.29425C9.63109 8.04425 9.27109 7.85425 8.94109 7.64425C8.31109 7.24425 7.68109 6.86425 7.03109 6.49425C5.85109 5.83425 4.63109 5.21425 3.52109 4.45425C3.51109 4.44425 3.34109 4.32425 3.45109 4.41425C3.58109 4.50425 3.37109 4.34425 3.34109 4.32425C3.24109 4.24425 3.15109 4.15425 3.06109 4.07425C2.97109 3.99425 2.89109 3.90425 2.80109 3.81425C2.70109 3.70425 2.81109 3.83425 2.83109 3.85425C2.79109 3.78425 2.75109 3.71425 2.70109 3.65425C2.67109 3.61425 2.59109 3.42425 2.68109 3.65425C2.66109 3.60425 2.64109 3.54425 2.62109 3.48425C2.60109 3.42425 2.59109 3.36425 2.58109 3.31425C2.58109 3.33425 2.59109 3.50425 2.59109 3.37425C2.59109 3.28425 2.60109 3.18425 2.59109 3.09425C2.58109 2.95425 2.58109 3.19425 2.57109 3.21425C2.59109 3.15425 2.59109 3.09425 2.60109 3.04425C2.61109 2.99425 2.64109 2.93425 2.65109 2.88425C2.65109 2.90425 2.53109 3.08425 2.61109 2.98425C2.65109 2.93425 2.72109 2.82425 2.73109 2.76425C2.76109 2.66425 2.69109 2.80425 2.67109 2.83425C2.70109 2.80425 2.72109 2.76425 2.75109 2.73425C2.83109 2.65425 2.91109 2.57425 3.00109 2.49425C3.09109 2.41425 2.96109 2.52425 2.95109 2.53425C2.99109 2.50425 3.03109 2.48425 3.07109 2.45425C3.15109 2.40425 3.23109 2.35425 3.31109 2.30425C3.39109 2.25425 3.48109 2.21425 3.57109 2.16425C3.61109 2.14425 3.66109 2.12425 3.70109 2.10425C3.57109 2.16425 3.73109 2.09425 3.78109 2.07425C4.72109 1.72425 5.69109 1.70425 6.72109 1.79425C7.63109 1.85425 7.85109 0.344252 6.94109 0.174252Z"/>
     </g>
    </g>
    <g id="group39" fill="none">
     <g id="group40" fill="none">
      <path id="shape50" transform="translate(622.057516607765, 412.307989582186)" fill="#231f20" stroke="#000000" stroke-opacity="0" stroke-width="0" stroke-linecap="square" stroke-linejoin="bevel" d="M0.692483 1.90201C3.37248 2.39201 6.01248 3.00201 8.69248 3.44201C10.9025 3.81201 13.1825 4.50201 15.3825 3.95201C16.3925 3.70201 16.5925 2.21201 15.6725 1.71201C13.6625 0.62201 11.3325 0.72201 9.08248 0.52201C6.37248 0.28201 3.65248 0.20201 0.942483 0.00201042C-0.127517 -0.0679896 -0.387517 1.71201 0.692483 1.90201Z"/>
     </g>
    </g>
    <g id="group41" fill="none">
     <g id="group42" fill="none">
      <path id="shape51" transform="translate(636.189863951092, 492.903565945988)" fill="#231f20" stroke="#000000" stroke-opacity="0" stroke-width="0" stroke-linecap="square" stroke-linejoin="bevel" d="M0.930136 5.01643C2.11014 5.10643 3.47014 4.74643 4.57014 4.33643C6.20014 3.73643 8.50014 3.41643 9.17014 1.65643C9.35014 1.17643 9.05014 0.506434 8.61014 0.276434C7.01014 -0.553566 5.41014 0.676434 3.99014 1.45643C3.06014 1.96643 2.01014 2.95643 0.930136 3.08643C-0.279864 3.24643 -0.339864 4.92643 0.930136 5.01643Z"/>
     </g>
    </g>
    <g id="group43" fill="none">
     <g id="group44" fill="none">
      <path id="shape52" transform="translate(814.379816525395, 493.69935056109)" fill="#231f20" stroke="#000000" stroke-opacity="0" stroke-width="0" stroke-linecap="square" stroke-linejoin="bevel" d="M8.43018 3.89065C7.30018 3.17065 6.19018 2.53065 5.00018 1.92065C3.63018 1.21065 2.56018 -0.349351 0.900183 0.0706494C0.390183 0.200649 -0.00981653 0.720649 0.000183475 1.25065C0.0701835 4.43065 5.46018 4.80065 7.68018 5.66065C8.74018 6.06065 9.31018 4.45065 8.43018 3.89065Z"/>
     </g>
    </g>
    <path id="shape53" transform="translate(542.156425487018, 202.92699070869)" fill="none" stroke="#231f20" stroke-width="5" stroke-linecap="round" stroke-linejoin="round" d="M6.68357 294.033C9.82357 315.673 11.7836 376.233 17.0136 388.793C18.9736 393.493 19.4336 425.273 22.5936 429.273C25.4636 432.893 29.9636 463.853 31.4836 468.223C44.2136 504.793 60.4436 503.903 76.2336 504.533C90.4836 505.103 106.184 490.913 115.204 502.913C117.704 506.233 127.484 515.763 130.374 518.753C141.414 530.193 200.104 527.693 214.364 527.163C262.844 525.353 275.844 498.693 279.044 494.313C282.254 489.933 282.324 495.233 301.794 489.363C321.274 483.493 316.044 472.393 316.444 456.903C316.704 446.873 312.494 240.743 312.864 233.923C313.274 226.263 309.974 216.983 313.514 210.183C313.514 210.183 309.984 131.323 309.274 119.163C308.564 106.993 305.644 105.633 298.434 97.453C291.224 89.273 291.584 86.103 289.334 74.533C287.084 62.963 264.134 41.143 233.884 20.553C203.634 -0.0369907 181.434 0.653009 146.854 0.0230093C112.274 -0.606991 90.6536 11.843 74.7436 19.823C58.8436 27.803 38.4836 50.263 30.1336 58.223C21.7836 66.183 12.2436 93.993 4.55357 110.073C-3.14643 126.153 1.30357 160.123 1.06357 187.423C1.02357 192.163 4.95357 269.813 5.27357 274.543C5.95357 284.163 6.68357 294.033 6.68357 294.033Z"/>
    <g id="group45" fill="none">
     <path id="shape54" transform="translate(854.12, 415.051130876291)" fill="#ffc384" stroke="#231f20" stroke-width="5" stroke-linecap="round" stroke-linejoin="round" d="M24.61 1.65887C16.29 -4.53113 0.1 8.58887 0 8.67887C0.28 13.0989 1.13 17.6789 0.91 21.7889C0.76 24.5389 1.36 59.8089 2.11 101.529L2.65 125.479C2.65 125.479 9.8 128.309 16.91 122.829C26.62 115.349 29.43 106.929 29.8 89.0589C30.17 71.1789 28.39 39.5989 32.2 29.3189C36.01 19.0389 32.95 7.86887 24.61 1.65887Z"/>
     <g id="group46" fill="none">
      <g id="group47" fill="none">
       <path id="shape55" transform="translate(855.796425340429, 428.151017698832)" fill="#231f20" stroke="#000000" stroke-opacity="0" stroke-width="0" stroke-linecap="square" stroke-linejoin="bevel" d="M22.6836 2.70898C16.6436 -0.811018 6.74357 -2.05102 4.10357 6.20898C1.07357 15.669 6.97357 27.929 9.87357 36.739C13.5636 47.959 15.7036 59.819 14.4136 71.689C14.1436 74.179 13.8236 77.169 11.0636 77.899C8.30357 78.629 6.25357 77.879 4.08357 80.339C-0.776425 85.839 -0.106425 95.599 0.243575 102.409C0.323575 103.889 2.63357 103.899 2.55357 102.409C2.25357 96.729 2.33357 88.219 5.70357 83.439C8.35357 79.689 13.7936 82.509 16.3336 77.799C17.6736 75.319 17.8336 72.159 17.9536 69.409C18.2236 63.299 17.8936 56.939 17.1436 50.869C15.9536 41.179 11.4336 32.009 8.73357 22.689C7.37357 17.989 5.20357 11.479 7.02357 6.61898C9.26357 0.648982 17.1336 2.35898 21.4536 4.77898C22.8136 5.52898 24.0136 3.47898 22.6836 2.70898Z"/>
      </g>
     </g>
     <path id="shape56" transform="translate(860.78942743684, 429.553325742097)" opacity="0.3" fill="#231f20" stroke="#000000" stroke-opacity="0" stroke-width="0" stroke-linecap="square" stroke-linejoin="bevel" d="M14.7506 1.46667C14.7506 1.46667 9.23057 0.746674 6.71057 10.2767C3.69057 21.7167 8.25057 37.2467 8.25057 37.2467C8.25057 37.2467 -0.0794274 18.8867 0.000572563 9.96667C0.0805726 1.04667 9.22057 -2.16333 14.7506 1.46667Z"/>
     <path id="shape57" transform="translate(855.01, 442.03)" opacity="0.3" fill="#231f20" stroke="#000000" stroke-opacity="0" stroke-width="0" stroke-linecap="square" stroke-linejoin="bevel" d="M0 0C0.07 6.03 0.28 27.5 7.85 37.92C15.43 48.34 18.33 61.27 12.51 64.11C6.69 66.95 3.01 73.27 2.17 78.95C1.33 84.63 0 0 0 0Z"/>
    </g>
    <g id="group48" fill="none">
     <g id="group49" fill="none">
      <path id="shape58" transform="translate(536.839209281107, 533.178161313556)" fill="#231f20" stroke="#000000" stroke-opacity="0" stroke-width="0" stroke-linecap="square" stroke-linejoin="bevel" d="M1.17079 6.82184C3.77079 6.07184 6.40079 5.45184 8.99079 4.66184C11.1508 4.00184 13.5208 3.64184 15.2208 2.10184C16.0608 1.34184 15.3408 0.0818387 14.3508 0.0118387C12.0608 -0.138161 9.82079 1.17184 7.72079 1.98184C5.33079 2.91184 3.02079 3.99184 0.650791 4.96184C-0.459209 5.41184 -0.0592093 7.17184 1.17079 6.82184Z"/>
     </g>
    </g>
    <g id="group50" fill="none">
     <g id="group51" fill="none">
      <path id="shape59" transform="translate(541.255062345565, 524.002319479131)" fill="#231f20" stroke="#000000" stroke-opacity="0" stroke-width="0" stroke-linecap="square" stroke-linejoin="bevel" d="M1.23494 5.33768C2.94494 4.89768 4.66494 4.58768 6.36494 4.10768C8.05494 3.62768 9.94494 3.42768 11.0049 1.92768C11.4749 1.25768 10.9749 0.337681 10.2749 0.127681C8.58494 -0.382319 6.81494 0.757681 5.24494 1.39768C3.62494 2.05768 2.09494 2.87768 0.494938 3.57768C-0.535062 4.02768 0.204938 5.60768 1.23494 5.33768Z"/>
     </g>
    </g>
    <g id="group52" fill="none">
     <g id="group53" fill="none">
      <path id="shape60" transform="translate(823.438492633319, 408.331591929806)" fill="#231f20" stroke="#000000" stroke-opacity="0" stroke-width="0" stroke-linecap="square" stroke-linejoin="bevel" d="M1.81151 9.40841C4.51151 7.33841 7.66151 4.92841 9.05151 1.72841C9.51151 0.678408 8.56151 -0.401592 7.47151 0.148408C4.36151 1.69841 2.09151 4.96841 0.171507 7.76841C-0.478493 8.71841 0.861507 10.1384 1.81151 9.40841Z"/>
     </g>
    </g>
    <g id="group54" fill="none">
     <g id="group55" fill="none">
      <path id="shape61" transform="translate(537.913191, 558.904795368181)" fill="#231f20" stroke="#000000" stroke-opacity="0" stroke-width="0" stroke-linecap="square" stroke-linejoin="bevel" d="M1.75681 14.7752C4.74681 13.2652 7.62681 11.7652 10.3168 9.7152C12.7268 7.8852 15.8368 5.6152 17.2368 2.8752C18.0668 1.2652 16.3368 -0.754795 14.6468 0.285205C12.1668 1.8052 10.1968 4.4052 8.03681 6.3652C5.63681 8.5452 3.20681 10.8552 0.546809 12.7152C-0.693191 13.5952 0.376809 15.4752 1.75681 14.7752Z"/>
     </g>
    </g>
    <g id="group56" fill="none">
     <g id="group57" fill="none">
      <path id="shape62" transform="translate(820.492103815157, 666.879666376685)" fill="#231f20" stroke="#000000" stroke-opacity="0" stroke-width="0" stroke-linecap="square" stroke-linejoin="bevel" d="M6.0779 2.41033C5.0479 1.65033 4.5979 1.55033 4.7379 2.11033C4.7779 2.29033 4.7779 2.47033 4.7279 2.65033C4.5979 2.83033 4.6879 3.29033 4.6279 3.50033C4.3479 4.50033 4.4879 5.84033 4.3779 6.88033C4.0779 9.86033 3.5579 12.8203 3.0879 15.7803C2.6779 18.3903 2.2779 21.0103 1.7179 23.6003C1.5779 24.2703 0.817896 25.9403 0.977896 26.5803C1.2879 27.8103 2.0679 26.2803 2.5379 26.4403C1.5079 26.0803 0.557896 26.8603 0.207896 27.7603C-1.0021 30.9403 3.4079 31.2503 4.7279 28.8503C6.5479 25.5103 6.5979 20.4403 7.0279 16.7503C7.5279 12.4303 8.2079 7.44033 7.5279 3.11033C7.3179 1.79033 6.1179 -1.43967 4.4079 0.730334C3.4679 1.89033 4.9979 3.55033 6.0779 2.41033Z"/>
     </g>
    </g>
    <g id="group58" fill="none">
     <g id="group59" fill="none">
      <path id="shape63" transform="translate(648.249816781943, 670.223586277433)" fill="#231f20" stroke="#000000" stroke-opacity="0" stroke-width="0" stroke-linecap="square" stroke-linejoin="bevel" d="M5.03018 2.38641C4.05018 1.71641 3.61018 1.65641 3.73018 2.19641C3.75018 2.29641 3.76018 2.40641 3.78018 2.50641C3.65018 2.66641 3.72018 3.64641 3.69018 3.83641C3.48018 5.01641 3.63018 6.40641 3.56018 7.60641C3.36018 10.8064 2.96018 13.9864 2.60018 17.1664C2.24018 20.3264 1.91018 23.4864 1.39018 26.6264C1.23018 27.5964 0.700183 28.9164 0.760183 29.8764C0.900183 32.3164 -0.439817 28.4864 2.89018 30.0464C1.80018 29.5364 0.460183 29.9164 0.110183 31.1764C0.0401832 31.4264 0.000183218 31.6964 0.000183218 31.9464C-0.00981678 32.6464 0.390183 33.4364 1.04018 33.7564C6.63018 36.5064 6.61018 17.7764 6.70018 15.3964C6.86018 11.3364 7.35018 6.74641 6.45018 2.74641C6.16018 1.45641 4.95018 -1.28359 3.37018 0.696414C2.41018 1.87641 3.95018 3.52641 5.03018 2.38641Z"/>
     </g>
    </g>
    <g id="group60" fill="none">
     <g id="group61" fill="none">
      <path id="shape64" transform="translate(542.299249246174, 575.638325946328)" fill="#231f20" stroke="#000000" stroke-opacity="0" stroke-width="0" stroke-linecap="square" stroke-linejoin="bevel" d="M2.12075 12.3817C5.20075 10.9617 8.44075 9.88167 11.4808 8.37167C13.6108 7.31167 15.3808 5.76167 15.8208 3.32167C16.0108 2.25167 15.7108 0.871674 14.6108 0.361674C13.9308 0.0416741 13.3308 -0.118326 12.5908 0.101674C11.7708 0.341674 10.9208 1.05167 10.7608 1.93167C10.4508 3.62167 8.50075 4.22167 7.12075 4.92167C4.48075 6.25167 2.31075 7.88167 0.390751 10.1517C-0.679249 11.4017 0.630751 13.0717 2.12075 12.3817Z"/>
     </g>
    </g>
    <g id="group62" fill="none">
     <g id="group63" fill="none">
      <path id="shape65" transform="translate(548.216888279303, 596.109994419667)" fill="#231f20" stroke="#000000" stroke-opacity="0" stroke-width="0" stroke-linecap="square" stroke-linejoin="bevel" d="M1.82311 10.36C4.34311 9.38001 6.94311 8.58001 9.47311 7.63001C11.8731 6.73001 12.8831 5.01001 13.1031 2.52001C13.3931 -0.849994 8.14311 -0.829994 7.85311 2.52001C7.91311 2.38001 7.90311 2.46001 7.82311 2.75001C7.72311 3.07001 7.73311 3.08001 7.84311 2.80001C7.69311 3.06001 7.70311 3.05001 7.89311 2.77001C8.16311 2.59001 8.17311 2.58001 7.92311 2.74001C7.75311 2.69001 6.82311 3.22001 6.34311 3.41001C3.73311 4.47001 1.89311 5.99001 0.223112 8.26001C-0.506888 9.23001 0.693112 10.8 1.82311 10.36Z"/>
     </g>
    </g>
    <g id="group64" fill="none">
     <g id="group65" fill="none">
      <path id="shape66" transform="translate(482.272180187599, 427.829963360019)" fill="#231f20" stroke="#000000" stroke-opacity="0" stroke-width="0" stroke-linecap="square" stroke-linejoin="bevel" d="M1.96782 18.74C4.10782 12.87 8.42782 4.54004 14.9378 2.60004C22.5878 0.320037 26.8178 12.15 29.3478 17.46C34.7478 28.8 38.2378 40.82 40.2278 53.2C41.0278 52.15 41.8278 51.1 42.6278 50.05C36.8878 49.83 32.0278 53.3 29.6078 58.43C26.8278 64.31 28.2678 71.08 30.7678 76.78C33.6278 83.3 38.6478 88.22 41.7378 94.54C43.7378 98.63 46.9378 101.75 51.7978 100.31C53.8878 99.69 53.9478 96.61 51.7978 96.02C49.8678 95.49 48.4878 95.48 47.2178 93.78C46.3578 92.63 45.9278 91.05 45.2678 89.78C43.4278 86.18 40.4678 83.47 38.3578 80.05C35.7478 75.83 33.3378 70.81 33.3178 65.74C33.3078 60.28 36.7078 54.91 42.6178 55.04C44.3578 55.08 45.2878 53.42 45.0178 51.89C42.1878 35.84 36.1978 17.48 25.7578 4.63004C15.4378 -8.07996 3.50782 8.36004 0.0578198 18.23C-0.35218 19.42 1.53782 19.92 1.96782 18.74Z"/>
     </g>
    </g>
   </g>
   <path id="shape67" transform="translate(273.23, 1023.43)" opacity="0.3" fill="#231f20" stroke="#000000" stroke-opacity="0" stroke-width="0" stroke-linecap="square" stroke-linejoin="bevel" d="M29.86 0C24.2 12.17 20.07 15.32 17.86 14.43C15.65 13.54 20.42 25.23 15.51 24.28C10.6 23.33 0 14.43 0 14.43C0 14.43 2.39 18.5 3.66 21.3C4.93 24.1 12.64 31.98 12 43.74C11.36 55.5 3.09 62.28 3.09 62.28L26.04 62.28C26.04 62.28 18.74 33.28 21.75 21.3C24.74 9.32 29.86 0 29.86 0Z"/>
   <g id="group66" fill="none">
    <g id="group67" fill="none">
     <path id="shape68" transform="translate(293.212071790265, 1008.09205755217)" fill="#231f20" stroke="#000000" stroke-opacity="0" stroke-width="0" stroke-linecap="square" stroke-linejoin="bevel" d="M8.08793 81.9479C3.56793 67.3279 1.01793 52.2479 3.20793 36.9579C4.27793 29.5179 8.54793 23.7379 11.2579 16.9479C13.1079 12.3079 13.9679 6.39794 13.6479 1.44794C13.5379 -0.222058 11.2679 -0.572058 10.7279 1.05794C8.77793 6.97794 9.16793 12.8579 6.38793 18.6179C3.28793 25.0379 0.617928 31.2279 0.177928 38.4179C-0.762072 53.7379 2.10793 67.8079 6.76793 82.3279C7.04793 83.1279 8.34793 82.7779 8.08793 81.9479Z"/>
    </g>
   </g>
   <g id="group68" fill="none">
    <g id="group69" fill="none">
     <path id="shape69" transform="translate(262.342590984807, 1008.36750880631)" fill="#231f20" stroke="#000000" stroke-opacity="0" stroke-width="0" stroke-linecap="square" stroke-linejoin="bevel" d="M0.707409 0.842491C-0.642591 7.06249 -0.252591 13.4025 3.56741 18.6825C4.17741 19.5225 5.78741 19.0625 5.37741 17.9225C3.47741 12.6225 2.08741 7.13249 2.96741 1.47249C3.18741 0.0124912 1.03741 -0.647509 0.707409 0.842491Z"/>
    </g>
   </g>
   <g id="group70" fill="none">
    <g id="group71" fill="none">
     <path id="shape70" transform="translate(265.394380638438, 1037.18698808136)" fill="#231f20" stroke="#000000" stroke-opacity="0" stroke-width="0" stroke-linecap="square" stroke-linejoin="bevel" d="M7.23562 1.02301C12.4256 11.133 17.7156 23.763 9.55562 33.633C5.66562 38.333 -1.31438 43.933 0.215619 50.893C0.475619 52.073 2.39562 52.413 2.92562 51.243C4.61562 47.553 5.32562 44.213 7.91562 40.913C10.1556 38.063 12.7656 35.443 14.4056 32.173C19.6856 21.613 13.4156 9.69301 8.41562 0.343012C7.99562 -0.436988 6.84562 0.253012 7.23562 1.02301Z"/>
    </g>
   </g>
   <g id="group72" fill="none">
    <g id="group73" fill="none">
     <g id="group74" fill="none">
      <path id="shape71" transform="translate(629.185619539916, 1048.77836656584)" fill="#231f20" stroke="#000000" stroke-opacity="0" stroke-width="0" stroke-linecap="square" stroke-linejoin="bevel" d="M16.4044 39.2016C16.8044 41.3816 18.3844 41.6616 19.4144 39.7916C21.1344 36.6416 20.1244 30.9916 19.7444 27.6816C18.4444 16.4516 13.8444 2.67163 1.35438 0.0316334C-0.0556195 -0.268367 -0.54562 1.65163 0.76438 2.15163C9.56438 5.51163 13.7444 14.8416 15.6644 23.4616C16.4844 27.1416 16.9244 30.8616 17.0944 34.6316C17.1444 35.6816 16.8544 37.2616 17.2044 38.2216C17.2844 38.4316 17.0244 39.0216 17.1244 39.1416C17.6044 39.7416 18.8444 39.6616 18.5544 38.5916C18.1844 37.2016 16.1444 37.8016 16.4044 39.2016Z"/>
     </g>
    </g>
    <g id="group75" fill="none">
     <g id="group76" fill="none">
      <path id="shape72" transform="translate(626.865746988854, 988.251858711472)" fill="#231f20" stroke="#000000" stroke-opacity="0" stroke-width="0" stroke-linecap="square" stroke-linejoin="bevel" d="M0.114253 1.32814C2.37425 5.51814 2.98425 10.2781 4.92425 14.5881C6.56425 18.2181 9.35425 20.8981 12.1143 23.6981C17.6743 29.3481 19.5443 35.8081 21.7343 43.2181C23.9843 50.8181 26.0143 58.4881 28.5343 65.9981C30.3643 71.4581 32.1943 77.4381 36.1243 81.7981C36.9043 82.6681 38.3643 81.5381 37.7443 80.5481C30.2443 68.5881 27.6543 53.0981 23.4543 39.7881C21.7443 34.3881 20.1343 28.9381 16.2343 24.6781C12.9543 21.0981 8.77425 18.2281 6.63425 13.7281C4.59425 9.42814 3.95425 4.63814 1.63425 0.438141C1.09425 -0.561859 -0.425747 0.328141 0.114253 1.32814Z"/>
     </g>
    </g>
   </g>
   <g id="group77" fill="none">
    <path id="shape73" transform="translate(667.063084501556, 570.21)" opacity="0.3" fill="#231f20" stroke="#231f20" stroke-width="4" stroke-linecap="round" stroke-linejoin="round" d="M1.11692 11.35C1.11692 11.35 10.5669 12.16 17.2169 7.56C23.8669 2.95 26.3469 0 26.3469 0C26.3469 0 26.2169 7.89 26.3469 9.22C26.4769 10.56 17.4569 11.92 33.6069 12.07C49.7569 12.22 60.6369 12.87 66.0169 12.07C71.3869 11.27 88.0269 6.8 88.7369 3.57C89.4469 0.34 94.1969 2.24 94.1969 2.24L93.1669 15.31C93.1669 15.31 6.51692 16.51 2.24692 13.89C-2.03308 11.27 1.11692 11.35 1.11692 11.35Z"/>
    <g id="group78" fill="none">
     <g id="group79" fill="none">
      <path id="shape74" transform="translate(645.935006359942, 572.076701005249)" fill="#231f20" stroke="#000000" stroke-opacity="0" stroke-width="0" stroke-linecap="square" stroke-linejoin="bevel" d="M0.464994 2.8833C7.73499 10.8233 18.035 13.0133 28.395 13.6233C42.905 14.4833 57.575 13.9733 72.105 14.0033C86.885 14.0433 101.675 14.3633 116.445 14.2433C123.695 14.1833 130.885 13.3833 138.125 13.2733C143.755 13.1933 149.545 13.7733 155.075 12.4633C157.145 11.9733 156.485 9.1633 154.605 8.9833C142.565 7.8033 130.345 9.5233 118.305 9.7333C104.565 9.9733 90.795 9.6033 77.045 9.5933C63.025 9.5833 49.015 9.6533 34.995 9.6333C23.815 9.6133 11.115 9.0333 2.82499 0.503299C1.31499 -1.0367 -0.995006 1.3033 0.464994 2.8833Z"/>
     </g>
    </g>
    <g id="group80" fill="none">
     <g id="group81" fill="none">
      <path id="shape75" transform="translate(686.344150986698, 565.196999716549)" fill="#231f20" stroke="#000000" stroke-opacity="0" stroke-width="0" stroke-linecap="square" stroke-linejoin="bevel" d="M3.84585 2.333C5.35585 5.103 5.56585 8.153 4.71585 11.163C3.87585 14.123 1.59585 15.523 0.235849 18.093C-0.434151 19.363 0.385849 21.033 1.90585 21.013C6.25585 20.953 9.02585 15.933 9.81585 12.133C10.6958 7.893 9.38585 3.433 6.28585 0.443C5.01585 -0.787 2.99585 0.773 3.84585 2.333Z"/>
     </g>
    </g>
    <g id="group82" fill="none">
     <g id="group83" fill="none">
      <path id="shape76" transform="translate(757.469518651683, 564.974007157857)" fill="#231f20" stroke="#000000" stroke-opacity="0" stroke-width="0" stroke-linecap="square" stroke-linejoin="bevel" d="M2.03048 1.30599C0.920481 7.07599 -0.919519 13.276 0.540481 19.186C1.08048 21.356 4.58048 21.466 5.05048 19.186C6.21048 13.566 5.13048 7.48599 5.62048 1.79599C5.79048 -0.254007 2.42048 -0.724007 2.03048 1.30599Z"/>
     </g>
    </g>
    <path id="shape77" transform="translate(694.382160753578, 604.420526010741)" opacity="0.3" fill="#231f20" stroke="#231f20" stroke-width="4" stroke-linecap="round" stroke-linejoin="round" d="M33.9078 4.11947C21.2378 2.53947 3.22784 3.43947 0.697839 2.31947C-1.83216 1.20947 2.38784 10.0295 15.4778 11.6095C28.5678 13.1895 33.8178 28.7895 47.8178 17.0295C58.7478 7.83947 78.3278 5.31947 77.2978 3.13947C76.2578 0.959474 66.6778 -1.30053 53.5178 0.899474C40.3678 3.09947 33.9078 4.11947 33.9078 4.11947Z"/>
    <g id="group84" fill="none">
     <g id="group85" fill="none">
      <path id="shape78" transform="translate(763.369530090163, 603.699589949882)" fill="#231f20" stroke="#000000" stroke-opacity="0" stroke-width="0" stroke-linecap="square" stroke-linejoin="bevel" d="M6.93047 0.65041C6.84047 0.65041 6.50047 0.61041 6.82047 0.65041C7.14047 0.69041 6.75047 0.63041 6.67047 0.62041C6.44047 0.57041 6.22047 0.52041 6.00047 0.46041C5.45047 0.32041 4.90047 0.19041 4.33047 0.11041C3.55047 0.00041005 2.77047 -0.0895899 2.00047 0.16041C1.65047 0.27041 1.29047 0.42041 0.97047 0.62041C0.47047 0.93041 0.26047 1.35041 0.0504699 1.87041C-0.0895301 2.22041 0.0804699 2.68041 0.33047 2.93041C0.63047 3.23041 0.99047 3.26041 1.39047 3.21041C1.05047 3.26041 1.43047 3.23041 1.52047 3.23041C1.75047 3.22041 1.96047 3.16041 2.19047 3.10041C2.25047 3.08041 2.32047 3.07041 2.39047 3.06041C2.55047 3.02041 2.00047 3.09041 2.28047 3.07041C2.41047 3.06041 2.54047 3.06041 2.68047 3.06041C2.94047 3.06041 3.19047 3.04041 3.45047 3.06041C3.59047 3.07041 3.72047 3.08041 3.86047 3.09041C4.04047 3.11041 3.44047 3.02041 3.74047 3.07041C3.81047 3.08041 3.87047 3.09041 3.94047 3.10041C4.93047 3.27041 5.93047 3.65041 6.95047 3.66041C7.73047 3.67041 8.49047 2.97041 8.45047 2.16041C8.39047 1.33041 7.77047 0.67041 6.93047 0.65041Z"/>
     </g>
    </g>
    <g id="group86" fill="none">
     <g id="group87" fill="none">
      <path id="shape79" transform="translate(695.83678184398, 606.179894152183)" fill="#231f20" stroke="#000000" stroke-opacity="0" stroke-width="0" stroke-linecap="square" stroke-linejoin="bevel" d="M6.91322 0.000105848C6.40322 0.000105848 5.89322 0.100106 5.39322 0.200106C5.15322 0.250106 4.91322 0.300106 4.67322 0.340106C4.43322 0.380106 4.13322 0.490106 3.89322 0.470106C3.93322 0.470106 4.25322 0.430106 4.04322 0.450106C3.97322 0.460106 3.90322 0.470106 3.83322 0.470106C3.70322 0.480106 3.57322 0.490106 3.45322 0.500106C3.18322 0.510106 2.91322 0.490106 2.64322 0.500106C2.50322 0.500106 2.36322 0.500106 2.22322 0.490106C2.15322 0.490106 2.08322 0.470106 2.01322 0.470106C2.07322 0.470106 2.33322 0.530106 2.14322 0.480106C1.78322 0.390106 1.44322 0.410106 1.07322 0.410106C0.223218 0.400106 -0.246782 1.34011 0.133218 2.05011C0.333218 2.43011 0.603218 2.78011 0.993218 2.99011C1.31322 3.17011 1.68322 3.30011 2.03322 3.40011C2.69322 3.58011 3.37322 3.56011 4.04322 3.48011C4.68322 3.40011 5.30322 3.29011 5.93322 3.15011C6.16322 3.10011 6.40322 3.05011 6.63322 3.01011C6.68322 3.00011 6.74322 2.99011 6.79322 2.98011C7.02322 2.94011 6.43322 3.02011 6.60322 3.01011C6.70322 3.00011 6.80322 2.99011 6.90322 2.99011C7.68322 2.98011 8.44322 2.31011 8.40322 1.49011C8.38322 0.690106 7.75322 -0.00989415 6.91322 0.000105848Z"/>
     </g>
    </g>
    <g id="group88" fill="none">
     <g id="group89" fill="none">
      <path id="shape80" transform="translate(709.950839877302, 604.001673798036)" fill="#231f20" stroke="#000000" stroke-opacity="0" stroke-width="0" stroke-linecap="square" stroke-linejoin="bevel" d="M0.50916 4.18833C4.13916 5.00833 7.67916 5.88833 11.4092 6.21833C14.9692 6.53833 18.5692 6.50833 22.1392 6.28833C29.3792 5.82833 36.5592 4.66833 43.7392 3.64833C44.7392 3.50833 45.2992 2.22833 45.0492 1.33833C44.7492 0.258326 43.7492 -0.111674 42.7392 0.0283262C35.8792 0.998326 29.0392 2.22833 22.1392 2.84833C18.7992 3.14833 15.4392 3.34833 12.0792 3.32833C8.36916 3.30833 4.54916 3.37833 0.87916 2.82833C0.00916012 2.70833 -0.39084 3.98833 0.50916 4.18833Z"/>
     </g>
    </g>
   </g>
  </g>
  <g id="group90" fill="none">
   <g id="group91" fill="none">
    <g id="group92" fill="none">
     <path id="shape81" transform="translate(218.821826134131, 579.82)" fill="#f0f1f1" stroke="#000000" stroke-opacity="0" stroke-width="0" stroke-linecap="square" stroke-linejoin="bevel" d="M454.018 405.08C455.818 402.04 437.088 275.01 437.088 275.01C437.088 275.01 424.388 171.84 424.578 161.05C424.768 150.26 427.888 128.61 427.888 128.61C427.888 128.61 428.968 125.44 429.978 121.23C421.188 120.59 409.998 128.05 399.578 127.63C388.518 127.19 377.248 127.48 367.108 115.13C366.448 117.83 365.708 120.08 364.928 121.06C359.578 127.79 354.028 127.22 352.118 126.76C353.058 136.95 353.408 144.95 353.238 148.07C352.608 159.7 325.908 176.94 298.288 169.32C270.678 161.7 224.648 96.9 232.008 79.25C239.368 61.6 242.968 49.65 262.238 43.95C262.238 43.95 262.768 43.9 263.728 43.83C264.748 42.42 265.798 40.96 266.898 39.43C267.998 37.91 268.568 34.06 269.758 32.49C271.128 30.68 275.208 29.4 276.628 27.53C280.858 21.94 282.068 15.4 286.398 9.73C289.788 5.29 294.688 2.94 298.828 0C269.728 0.46 183.268 0.06 161.038 8.04C134.738 17.48 130.888 23.48 119.318 30.02C107.748 36.56 100.458 44.83 100.458 44.83C100.458 44.83 97.1282 52.17 93.2782 52.08C89.4182 52 70.1682 61.91 61.4982 71.55C52.8182 81.19 43.6182 123 26.8082 173.42C7.19817 232.23 21.0782 297.26 15.4982 311.21C9.91817 325.16 11.9582 346.16 10.0382 364.04C8.10817 381.92 -5.35183 409.48 2.36817 414.16C10.0882 418.84 127.388 418.41 127.388 418.41L126.768 510.39L472.328 510.39C472.288 510.4 452.208 408.12 454.018 405.08Z"/>
     <g id="group93" fill="none">
      <path id="shape82" transform="translate(216.18157814549, 577.319644903012)" fill="#231f20" stroke="#000000" stroke-opacity="0" stroke-width="0" stroke-linecap="square" stroke-linejoin="bevel" d="M458.818 408.84C459.608 407.33 459.268 405.28 459.158 403.65C458.928 400.34 458.558 397.05 458.188 393.75C457.018 383.33 455.648 372.93 454.258 362.54C451.138 339.19 447.818 315.87 444.438 292.56C443.688 287.38 442.958 282.21 442.168 277.04C442.068 276.41 442.298 278.12 442.178 277.12C442.088 276.32 441.978 275.52 441.888 274.72C441.478 271.39 441.078 268.06 440.668 264.73C437.738 240.53 434.848 216.32 432.238 192.08C431.308 183.4 430.248 174.7 429.788 165.98C429.508 160.81 430.128 155.59 430.648 150.46C431.268 144.4 431.688 138.13 432.878 132.15C433.398 129.54 434.388 126.99 435.018 124.4C435.418 122.76 434.248 121.32 432.608 121.24C427.078 120.96 421.738 123 416.568 124.71C410.978 126.56 405.788 127.78 399.878 127.56C395.078 127.38 390.268 127.15 385.638 125.76C379.898 124.03 375.318 120.42 371.508 115.88C370.288 114.42 367.768 115.27 367.328 116.98C366.318 120.95 364.938 123.9 361.118 125.93C359.358 126.87 357.248 127.28 355.408 126.86C353.958 126.53 352.088 127.57 352.248 129.27C352.818 135.57 353.368 141.91 353.408 148.24C353.428 151.69 352.468 154.28 350.208 156.94C343.038 165.37 331.028 169.88 320.268 170.95C310.078 171.96 300.228 170.17 291.608 164.67C284.148 159.91 277.628 153.7 271.608 147.26C258.998 133.77 247.368 117.99 240.158 100.89C238.068 95.9404 235.368 89.0004 236.608 83.8804C237.068 81.9904 237.998 80.2004 238.728 78.4104C239.828 75.7404 240.928 73.0604 242.128 70.4404C244.058 66.2304 246.258 62.0204 249.348 58.5404C253.128 54.2904 258.008 51.4104 263.358 49.5704C263.888 49.3904 264.518 49.0804 265.048 48.9504C265.918 48.7404 266.808 48.9804 267.628 48.5004C269.078 47.6504 270.198 45.3204 271.148 43.9604C272.058 42.6504 272.628 41.3404 273.128 39.8204C273.558 38.5104 273.808 37.0104 274.858 36.0504C276.898 34.1804 279.658 33.5904 281.418 31.3004C283.828 28.1704 285.308 24.4704 286.958 20.9104C288.648 17.2504 290.548 13.7404 293.588 11.0204C296.358 8.55036 299.688 6.78036 302.718 4.66036C304.648 3.31036 304.098 -0.0396449 301.458 0.000355097C276.978 0.380355 252.488 0.390355 228.018 1.27036C214.688 1.75036 201.328 2.38036 188.048 3.72036C177.898 4.74036 168.048 6.15036 158.488 9.80036C151.518 12.4604 144.628 15.4304 138.168 19.1804C133.978 21.6104 130.058 24.4204 126.018 27.0804C119.888 31.1204 113.538 34.5804 107.888 39.3304C104.928 41.8204 102.008 44.2904 100.098 47.6504C98.7784 49.9704 97.5084 51.7904 94.8284 52.1904C92.7284 52.5004 90.7184 53.4304 88.7884 54.2804C82.0584 57.2504 75.6284 61.1704 69.7884 65.6304C65.6284 68.8104 61.7384 72.2404 59.1884 76.8604C56.7584 81.2804 54.9784 86.0904 53.2984 90.8304C47.9984 105.76 43.7984 121.08 39.2584 136.24C36.3484 145.94 33.3884 155.62 30.2884 165.26C27.1384 175.05 23.8684 184.74 21.6884 194.81C17.6884 213.28 16.1884 232.21 15.9884 251.08C15.8384 265.95 16.6984 280.77 16.9984 295.63C17.0884 300.17 17.2484 304.92 16.6084 309.4C16.3684 311.11 15.7984 312.72 15.2084 314.38C13.8584 318.17 13.1084 322.15 12.5684 326.13C11.3084 335.52 11.3484 345.02 10.9684 354.47C10.6384 362.77 9.75842 370.69 7.64842 378.73C5.75842 385.93 3.39842 393 1.66842 400.24C0.538422 404.98 -1.14158 411.24 1.11842 415.9C3.47842 420.78 10.6684 420.55 15.2684 420.97C35.2884 422.8 55.5384 422.86 75.6184 423.13C92.7984 423.37 109.988 423.46 127.168 423.43C128.108 423.43 129.058 423.43 129.998 423.42C129.168 422.59 128.328 421.75 127.498 420.92C127.428 431.24 127.358 441.56 127.288 451.89C127.178 468.44 127.068 484.99 126.948 501.55C126.918 505.34 126.898 509.12 126.868 512.91C126.858 514.26 128.018 515.41 129.368 515.41C140.898 515.41 152.418 515.41 163.948 515.41C191.438 515.41 218.928 515.41 246.418 515.41C279.648 515.41 312.868 515.41 346.098 515.41C374.828 515.41 403.558 515.41 432.298 515.41C446.298 515.41 460.368 515.86 474.368 515.41C474.558 515.4 474.748 515.41 474.938 515.41C476.658 515.41 477.658 513.82 477.348 512.25C475.118 500.88 472.938 489.51 470.788 478.12C467.268 459.48 463.728 440.83 460.758 422.1C460.218 418.7 459.718 415.48 459.358 412.32C459.238 411.3 459.118 410.28 459.078 409.25C459.068 408.93 459.068 408.61 459.058 408.29C459.028 407.71 458.968 408.55 458.818 408.84C460.288 405.98 455.978 403.45 454.498 406.32C453.798 407.68 454.048 409.37 454.188 410.83C454.448 413.59 454.858 416.33 455.258 419.07C456.508 427.5 457.988 435.9 459.478 444.29C462.828 463.12 466.398 481.92 470.018 500.7C470.848 504.99 471.678 509.28 472.518 513.56C473.318 512.51 474.128 511.45 474.928 510.4C463.398 510.4 451.878 510.4 440.348 510.4C412.858 510.4 385.368 510.4 357.878 510.4C324.648 510.4 291.428 510.4 258.198 510.4C229.468 510.4 200.738 510.4 171.998 510.4C162.438 510.4 152.888 510.4 143.328 510.4C138.988 510.4 134.248 509.86 129.928 510.4C129.748 510.42 129.548 510.4 129.358 510.4C130.188 511.23 131.028 512.07 131.858 512.9C131.928 502.58 131.998 492.26 132.068 481.93C132.178 465.38 132.288 448.83 132.408 432.27C132.438 428.48 132.458 424.7 132.488 420.91C132.498 419.56 131.338 418.41 129.988 418.41C117.678 418.45 105.378 418.4 93.0684 418.3C71.6484 418.13 50.2084 417.9 28.8084 416.85C22.1684 416.52 14.7184 416.26 8.73842 415.15C7.90842 415 7.07842 414.83 6.27842 414.54C6.19842 414.51 6.49842 414.82 6.24842 414.54C5.73842 413.98 5.51842 413.67 5.30842 412.84C4.75842 410.72 5.15842 408.24 5.51842 406.12C6.06842 402.89 6.89842 399.71 7.76842 396.56C9.73842 389.38 12.0484 382.29 13.6784 375.03C15.5184 366.82 15.8384 358.43 16.0984 350.05C16.3884 341.01 16.3784 331.81 18.0884 322.89C19.0384 317.94 21.1784 313.43 21.6984 308.39C22.8684 297.07 21.6184 285.38 21.2684 274.04C20.7284 256.85 20.7484 239.61 22.4184 222.48C23.3584 212.87 24.8284 203.32 26.9784 193.91C29.2484 183.98 32.5784 174.4 35.6784 164.72C41.3384 147.02 46.4784 129.17 51.8884 111.39C55.1784 100.57 58.0984 88.8404 63.7384 78.9304C66.3284 74.3904 70.7684 70.9204 75.1984 67.8204C80.6684 63.9804 86.6484 60.3004 92.9184 57.9304C95.2284 57.0604 96.5684 57.4504 98.7184 56.3704C101.228 55.1104 103.038 52.5604 104.398 50.1704C104.588 49.8404 105.668 47.9904 104.848 49.0804C105.158 48.6704 105.568 48.3104 105.918 47.9404C107.898 45.9004 110.018 43.9904 112.218 42.1904C117.578 37.7904 123.678 34.6404 129.408 30.8104C133.498 28.0804 137.518 25.2504 141.818 22.8404C152.088 17.0704 163.348 12.3704 174.998 10.4004C186.328 8.48036 197.878 7.75036 209.338 7.11036C235.628 5.63036 261.978 5.40036 288.308 5.15036C292.678 5.11036 297.058 5.07036 301.428 5.00036C301.008 3.45036 300.588 1.89036 300.168 0.340355C296.018 3.24036 291.388 5.63036 288.028 9.50036C284.398 13.6704 282.598 18.8104 280.158 23.6804C279.098 25.8004 277.988 28.1904 275.958 29.5304C274.288 30.6304 272.358 31.4004 270.938 32.8404C269.448 34.3504 268.928 36.5404 268.288 38.4904C267.468 40.9804 265.718 42.9604 264.198 45.0704C264.918 44.6604 265.638 44.2404 266.358 43.8304C261.508 44.2004 256.448 46.6404 252.418 49.3004C248.838 51.6704 245.818 54.6504 243.298 58.1204C240.658 61.7504 238.688 65.8204 236.888 69.9204C235.148 73.8904 232.938 78.0804 231.828 82.2704C230.448 87.5004 232.078 93.3804 233.818 98.3204C236.358 105.51 239.948 112.34 243.888 118.85C253.118 134.12 264.558 148.63 277.968 160.45C283.398 165.24 289.328 169.8 296.018 172.69C305.658 176.84 317.058 177.03 327.198 174.85C337.518 172.63 348.658 167.45 355.078 158.76C357.408 155.61 358.408 152.34 358.398 148.45C358.388 142.04 357.818 135.62 357.238 129.25C356.188 130.05 355.128 130.86 354.078 131.66C357.358 132.39 360.698 131.81 363.638 130.22C368.518 127.59 370.828 123.46 372.138 118.28C370.748 118.65 369.348 119.02 367.958 119.38C371.868 124.04 376.618 127.73 382.338 129.88C387.288 131.75 392.638 132.21 397.878 132.44C403.908 132.71 409.338 132.19 415.138 130.38C420.768 128.63 426.588 125.9 432.598 126.2C431.798 125.15 430.988 124.09 430.188 123.04C429.538 125.68 428.528 128.29 428.018 130.95C427.588 133.2 427.388 135.51 427.098 137.78C426.098 145.53 425.138 153.33 424.778 161.14C424.438 168.44 425.548 175.85 426.288 183.09C428.788 207.6 431.728 232.07 434.668 256.54C435.878 266.63 437.098 276.7 438.558 286.75C441.718 308.39 444.808 330.05 447.778 351.72C449.338 363.12 450.868 374.53 452.258 385.95C453.068 392.58 454.228 399.38 454.258 406.07C454.258 406.34 454.208 406.67 454.248 406.94C454.298 407.32 454.328 406.59 454.478 406.29C453.018 409.17 457.328 411.7 458.818 408.84Z"/>
     </g>
    </g>
    <g id="group94" fill="none">
     <path id="shape83" transform="translate(428.21, 579.82)" opacity="0.3" fill="#231f20" stroke="#000000" stroke-opacity="0" stroke-width="0" stroke-linecap="square" stroke-linejoin="bevel" d="M52.84 43.95C52.84 43.95 53.37 43.9 54.33 43.83C55.35 42.42 56.4 40.96 57.5 39.43C58.6 37.91 59.17 34.06 60.36 32.49C61.73 30.68 65.81 29.4 67.23 27.53C71.46 21.94 72.67 15.4 77 9.73C80.39 5.29 85.29 2.94 89.43 0C71.72 0.28 32.79 0.24 0 1.97L0.04 2.46C23.21 12.31 42.81 18.39 40.49 26.04C38.17 33.69 24.15 46.23 19.1 68.41C17.73 74.43 20.22 74.74 25.4 72.56C31.2 58.55 36.13 48.9 52.84 43.95Z"/>
     <path id="shape84" transform="translate(450.88, 677.03)" opacity="0.3" fill="#231f20" stroke="#000000" stroke-opacity="0" stroke-width="0" stroke-linecap="square" stroke-linejoin="bevel" d="M197.91 24.02C189.12 23.38 177.93 30.84 167.51 30.42C156.45 29.98 145.18 30.27 135.04 17.92C134.38 20.62 133.64 22.87 132.86 23.85C127.15 31.04 121.21 29.9 119.71 29.46C119.44 32.93 118.96 36.1 120.79 38.9L122.51 42.86L121.09 44.37C119.38 49.19 121.06 66.29 103.3 68.93C85.54 71.57 41.2 73.5 22.01 38.89C2.83 4.28 0 0 0 0C0.29 0.85 0.58 1.77 0.86 2.77C6.92 24.38 10.34 78.66 52.12 89.23C95.83 100.29 117.69 89.14 125.4 69.43C129.74 58.34 129.74 48.53 128.6 42.94C138.1 52.63 147.86 42.82 165.07 50.45C174.85 54.78 185.18 63.65 192.95 71.3C192.65 67.73 192.49 65.13 192.51 63.85C192.7 53.06 195.82 31.41 195.82 31.41C195.82 31.41 196.9 28.24 197.91 24.02Z"/>
    </g>
    <path id="shape85" transform="translate(345.55, 769.84)" opacity="0.3" fill="#231f20" stroke="#000000" stroke-opacity="0" stroke-width="0" stroke-linecap="square" stroke-linejoin="bevel" d="M36.4 0C36.46 24.99 43.4 102.83 48.84 140.55C54.27 178.27 53.32 198.2 52.83 208C52.34 217.8 68.84 205.84 94.34 204.59C119.84 203.34 55.54 234.2 61.66 239.02C67.77 243.84 84.23 241.91 92.4 239.02C100.56 236.13 126.73 223.57 140.16 228.4C153.59 233.23 93.91 256.17 94.34 259.65C94.77 263.13 84.27 281.45 94.34 286.27C104.41 291.09 113.05 300.55 129.46 302.57C145.87 304.59 150.7 320.38 150.7 320.38L0 320.38L0.62 228.4L33.18 227.84"/>
    <g id="group95" fill="none">
     <g id="group96" fill="none">
      <path id="shape86" transform="translate(323.754855571661, 645.677060302501)" fill="#231f20" stroke="#000000" stroke-opacity="0" stroke-width="0" stroke-linecap="square" stroke-linejoin="bevel" d="M22.4151 355.063C33.9251 354.863 45.4351 354.663 56.9451 354.463C58.5851 354.433 60.2151 354.403 61.8551 354.373C63.2551 354.353 64.2851 353.243 64.3551 351.873C64.8251 342.143 65.1951 332.333 64.7351 322.603C64.6051 319.963 64.3851 317.483 64.4651 314.843C64.6151 310.283 64.7551 305.713 64.8751 301.153C65.2151 287.993 65.4751 274.813 65.2351 261.653C65.0651 252.153 64.3851 242.653 63.9451 233.163C62.7751 208.123 61.7051 183.073 60.9851 158.023C60.6451 146.153 60.9051 134.283 59.0451 122.513C56.4851 106.223 50.3951 90.9629 43.7451 75.9729C40.3151 68.2229 36.7851 60.5129 33.5851 52.6629C30.0751 44.0529 26.4551 35.5429 22.0651 27.3329C17.2651 18.3829 11.8151 9.55294 5.17514 1.83294C4.86514 1.47294 4.55514 1.11294 4.23514 0.77294C2.02514 -1.57706 -1.50486 1.96294 0.695144 4.31294C1.96514 5.66294 3.11514 7.12294 4.24514 8.58294C5.14514 9.75294 6.84514 12.0829 7.97514 13.7329C9.69514 16.2329 11.3451 18.7929 12.9251 21.3929C17.1051 28.2829 20.8051 35.4629 24.1051 42.8129C27.8551 51.1629 31.0951 59.7429 34.8051 68.1129C41.3051 82.7829 48.1551 97.3629 52.0251 113.003C54.1551 121.583 55.3451 130.343 55.6251 139.183C55.7651 143.623 55.7251 148.073 55.8351 152.513C56.4151 176.863 57.4951 201.213 58.5851 225.543C59.0151 235.123 59.5851 244.703 60.0051 254.283C60.5751 267.053 60.3251 279.863 60.0651 292.633C59.9451 298.323 59.8051 304.003 59.6251 309.693C59.5451 312.393 59.3051 315.133 59.3551 317.843C59.3851 319.543 59.6651 321.273 59.7451 322.983C59.8851 326.053 59.9051 329.133 59.8851 332.213C59.8551 337.843 59.6951 343.473 59.4751 349.093C59.4351 350.023 59.3951 350.963 59.3551 351.893C60.1851 351.063 61.0251 350.223 61.8551 349.393C50.3451 349.593 38.8351 349.793 27.3251 349.993C25.6851 350.023 24.0551 350.053 22.4151 350.083C19.2051 350.113 19.1951 355.113 22.4151 355.063Z"/>
     </g>
    </g>
   </g>
   <g id="group97" fill="none">
    <g id="group98" fill="none">
     <path id="shape87" transform="translate(243.61, 576.75)" fill="#414042" stroke="#231f20" stroke-width="4" stroke-linecap="round" stroke-linejoin="round" d="M219.34 96.56L222.12 95.24C219.18 85.62 218.81 76.13 223.54 68.56C224.43 67.14 231.4 57.36 242.1 42.51C243.2 40.99 243.77 37.14 244.96 35.57C246.33 33.76 250.41 32.48 251.83 30.61C256.06 25.02 257.27 18.48 261.6 12.81C266.07 6.96 273.17 4.73 277.67 0C230.02 2.05 173.73 4.88 152.69 7.53C113.48 12.47 108.96 21.2 94.52 33.1C80.08 45 79.73 51.73 71.05 56.22C62.37 60.71 66.55 65.59 62.69 72.66C58.83 79.73 43.4 129.23 31.83 189.44C20.26 249.65 0 513.47 0 513.47L225.09 513.47L266.54 226.86L252.55 221.89Z"/>
     <path id="shape88" transform="translate(569.59, 694.8)" fill="#414042" stroke="#231f20" stroke-width="4" stroke-linecap="round" stroke-linejoin="round" d="M85.68 153.54C84.08 136.38 73.55 40.99 73.55 40.99C73.55 40.99 73.99 35.28 75.62 28.58C76.98 22.96 77.45 11.04 77.56 7.34C66.18 9.37 37.35 22.34 16.37 0C15.7 2.77 14.94 5.08 14.15 6.08C7.55 14.39 0.64 11.57 0.64 11.57C0.42 11.66 0.21 11.75 0 11.83L15.86 41.22L0.64 106.47L30.22 395.41L117.83 395.41L117.83 389.3C117.83 389.3 96.92 256.86 94.59 240.23C92.28 223.61 87.28 170.7 85.68 153.54Z"/>
    </g>
    <path id="shape89" transform="translate(596.69, 842.38)" opacity="0.3" fill="#231f20" stroke="#231f20" stroke-width="4" stroke-linecap="round" stroke-linejoin="round" d="M58.58 5.96C58.44 4.5 58.24 2.47 57.99 0C61.55 68.52 67.54 187.75 66.9 202.81C66 224.1 65.93 224.19 53.06 223.27C40.19 222.35 35.99 223.54 26.39 223.27C21.43 223.13 9.94 220.16 0 217.32L3.12 247.84L90.73 247.84L90.73 241.73C90.73 241.73 69.82 109.29 67.49 92.66C65.18 76.03 60.18 23.12 58.58 5.96Z"/>
    <g id="group99" fill="none">
     <path id="shape90" transform="translate(410.252835534115, 576.75)" opacity="0.3" fill="#231f20" stroke="#231f20" stroke-width="4" stroke-linecap="round" stroke-linejoin="round" d="M52.6972 96.56L55.4772 95.24C52.5372 85.62 52.1672 76.13 56.8972 68.56C57.7872 67.14 64.7572 57.36 75.4572 42.51C76.5572 40.99 77.1272 37.14 78.3172 35.57C79.6872 33.76 83.7672 32.48 85.1872 30.61C89.4172 25.02 90.6272 18.48 94.9572 12.81C99.4272 6.96 106.527 4.73 111.027 0C84.2572 1.15 54.7772 2.55 30.3372 4.02C42.0072 16.38 47.7472 23.15 47.7472 23.15C6.14716 24.8 14.1872 29.68 6.53716 57.27C-1.11284 84.86 -4.96284 137.8 11.7472 174.33C28.4572 210.86 37.9772 216.8 48.0072 235.69C58.0372 254.58 58.4272 234.27 58.4272 234.27C58.4272 234.27 74.8772 242.77 75.4572 253.17C76.0372 263.57 84.9072 308.39 84.9072 308.39L90.0372 294.93L99.8872 226.84L85.8972 221.87Z"/>
     <path id="shape91" transform="translate(569.59, 694.79)" opacity="0.3" fill="#231f20" stroke="#231f20" stroke-width="4" stroke-linecap="round" stroke-linejoin="round" d="M77.56 7.34C66.18 9.37 37.35 22.34 16.37 0C15.7 2.77 14.94 5.08 14.15 6.08C7.55 14.39 0.64 11.57 0.64 11.57C0.42 11.66 0.21 11.75 0 11.83L15.86 41.22L0.64 106.47L8.69 185.09L9.87 183.98C9.87 183.98 10.18 134.24 9.87 116.22C9.56 98.21 28.48 97.12 37.51 75.03C46.54 52.95 45.26 40.46 59.71 43.53C66.08 44.88 71.15 48.72 74.82 52.59C74.03 45.44 73.54 40.98 73.54 40.98C73.54 40.98 73.98 35.27 75.61 28.57C76.98 22.96 77.45 11.05 77.56 7.34Z"/>
    </g>
    <path id="shape92" transform="translate(319.25, 643.14)" opacity="0.3" fill="#231f20" stroke="#231f20" stroke-width="4" stroke-linecap="round" stroke-linejoin="round" d="M28.3 0C38.2 39.43 53.33 156.99 47.18 215.66C41.03 274.33 31.49 306.89 44.62 318.89C57.75 330.9 61.11 356.61 53 359.18C44.89 361.75 45.54 384.31 50.36 395.53C55.18 406.75 62.16 426.85 57.38 424.52C52.6 422.19 75.13 447.07 75.13 447.07L0 447.07L12.19 19.93Z"/>
    <path id="shape93" transform="translate(428.707594809336, 619.26)" fill="#2b2b2b" stroke="#231f20" stroke-width="4" stroke-linecap="round" stroke-linejoin="round" d="M57.0024 0C20.6924 0 8.75241 15.4 3.68241 35.07C-1.39759 54.74 -4.29759 114.25 16.3524 142.59C37.0124 170.93 74.8624 182.02 74.8624 182.02C74.8624 182.02 82.3524 143.76 62.0724 105.36C41.7924 66.96 41.6524 22.99 42.1924 21.28C42.7224 19.55 57.0024 0 57.0024 0Z"/>
    <path id="shape94" transform="translate(563.79, 696.29)" fill="#2b2b2b" stroke="#231f20" stroke-width="4" stroke-linecap="round" stroke-linejoin="round" d="M31.35 5.92C31.35 5.92 45.57 33.37 43.01 54.8C40.45 76.23 6.44 104.99 6.44 104.99C6.44 104.99 0 64.24 0 39.74C0 15.24 2.21 17.19 2.21 17.19L6.44 10.09C6.44 10.09 11.56 11.59 16.52 7.32L22.14 0C22.14 0 21.8 2.5 24.06 2.78C26.32 3.06 28.22 4.6 28.22 4.6Z"/>
    <path id="shape95" transform="translate(213.71, 624.630196790683)" fill="#414042" stroke="#231f20" stroke-width="4" stroke-linecap="round" stroke-linejoin="round" d="M112.26 0.0198032C92.47 0.979803 68.14 7.7698 52.07 38.4398C36 69.1098 27 104.16 23.78 153.17C20.56 202.18 6.42 329.47 3.21 364.19C0 398.9 0 465.58 0 465.58L136.41 468.33C136.41 468.33 131.98 305.02 133.17 285.75C134.36 266.48 142.81 171.09 145.98 132.64C149.15 94.1998 145.45 -1.5802 112.26 0.0198032Z"/>
    <path id="shape96" transform="translate(468.68, 803.61)" fill="#353535" stroke="#231f20" stroke-width="4" stroke-linecap="round" stroke-linejoin="round" d="M41.45 0L61.83 3.29L19.35 289.36L0 286.61Z"/>
    <path id="shape97" transform="translate(563.79, 801.28)" fill="#808184" stroke="#231f20" stroke-width="4" stroke-linecap="round" stroke-linejoin="round" d="M6.44 0C2.21 1.77 0 6.91 0 6.91L28.78 288.94L36.03 288.94Z"/>
    <path id="shape98" transform="translate(468.68, 803.61)" fill="#808184" stroke="#231f20" stroke-width="4" stroke-linecap="round" stroke-linejoin="round" d="M41.45 0C41.45 0 48.83 6.11 48.67 8.01C48.52 9.9 8.69 287.85 8.69 287.85L0 286.61Z"/>
    <path id="shape99" transform="translate(213.72, 821.95)" opacity="0.3" fill="#231f20" stroke="#231f20" stroke-width="4" stroke-linecap="round" stroke-linejoin="round" d="M49.42 250.46C26.6 248.72 4.78 222.74 0.69 217.62C0.67 218.27 0.66 218.93 0.64 219.58C2.38 227.19 1.28 248.53 0 268.28L136.41 271.03C136.41 271.03 131.98 107.72 133.17 88.45C133.89 76.86 137.23 37.72 140.47 0C137.11 39.3 123.61 87.13 117.74 95.51C111.87 103.89 114.94 110.32 117.74 115.3C120.54 120.28 111.13 134.25 114.39 141.73C117.65 149.21 119.58 148.15 121.51 158.81C123.44 169.47 125.91 181.03 127.08 188.75C128.25 196.47 132.29 214.79 117.74 235.04C103.17 255.27 74.74 252.39 49.42 250.46Z"/>
    <path id="shape100" transform="translate(429.11, 627.33)" fill="none" stroke="#231f20" stroke-width="4" stroke-linecap="round" stroke-linejoin="round" d="M51.18 0C51.18 0 24.07 9.75 13.89 17.57C3.71 25.39 0 51.29 0 51.29"/>
    <path id="shape101" transform="translate(428.94, 651.369957897563)" fill="none" stroke="#231f20" stroke-width="4" stroke-linecap="round" stroke-linejoin="round" d="M42.13 4.21024e-05C32.06 -0.0399579 4.37 28.43 0 50.84"/>
    <path id="shape102" transform="translate(437.899886222222, 673.31)" fill="none" stroke="#231f20" stroke-width="4" stroke-linecap="round" stroke-linejoin="round" d="M35.8901 0C25.6701 12.31 2.80011 45.24 1.38011 56.63C-0.0398862 68.02 0.000113778 75.47 0.000113778 75.47"/>
    <path id="shape103" transform="translate(458.26, 710.27)" fill="none" stroke="#231f20" stroke-width="4" stroke-linecap="round" stroke-linejoin="round" d="M25.92 0C16.89 16.92 7.29 23.25 3.95 38.51C0.6 53.77 0 65.85 0 65.85"/>
    <path id="shape104" transform="translate(482.82867151056, 731.46)" fill="none" stroke="#231f20" stroke-width="4" stroke-linecap="round" stroke-linejoin="round" d="M11.2913 0C6.46133 7.73 8.30133 10.1 2.88133 27.77C-2.53867 45.44 1.35133 60.97 1.35133 60.97"/>
    <path id="shape105" transform="translate(578.12, 705.14)" fill="none" stroke="#231f20" stroke-width="4" stroke-linecap="round" stroke-linejoin="round" d="M0 0C3.31 1.9 11.03 6.82 15.74 10.79C20.45 14.76 26.14 24.95 26.14 24.95"/>
    <path id="shape106" transform="translate(566, 713.47)" fill="none" stroke="#231f20" stroke-width="4" stroke-linecap="round" stroke-linejoin="round" d="M0 0C1.29 3 21.86 17.87 28.71 29.72C35.57 41.57 35.08 52.71 35.08 52.71"/>
    <path id="shape107" transform="translate(563.84, 739.83)" fill="none" stroke="#231f20" stroke-width="4" stroke-linecap="round" stroke-linejoin="round" d="M0 0C9.85 6.64 15.19 18.77 17.71 26.36C19.41 31.49 19.7 48.73 19.7 48.73"/>
   </g>
  </g>
 </g><g id="Layer_1" transform="matrix(0.72 0 0 0.72 -192.947085201793 -139.479820627802)" fill="none">
  <g id="group100" fill="none">
   <path id="shape108" transform="translate(504.87, 373.42)" fill="#231f20" stroke="#231f20" stroke-width="0.75" stroke-linecap="round" stroke-linejoin="round" d="M76.44 0C62.73 0.84 0 26.38 0 26.38C0 26.38 10.09 27.79 13.21 28.54C16.33 29.28 24.96 32.33 24.96 32.33C24.96 32.33 30.93 27.25 34.81 26.83C38.7 26.4 53.83 32.79 53.83 32.79L83.88 29.36L81.7 0.01L76.44 0.01Z"/>
   <path id="shape109" transform="translate(598.750532539807, 373.417567065909)" opacity="0.9" fill="url(#gradient0)" stroke="#000000" stroke-opacity="0" stroke-width="0" stroke-linecap="square" stroke-linejoin="bevel" d="M69.4295 0.00243293C27.0395 0.182433 2.74947 6.18243 1.06947 12.5124C-0.610533 18.8424 -2.53053 64.3424 14.1795 79.5224C30.8895 94.7024 83.0795 89.5024 91.9695 82.8024C100.859 76.1024 103.969 60.3424 108.669 44.6824C113.369 29.0224 114.829 13.1224 104.349 5.85243C96.7995 0.632433 80.3195 -0.0475671 69.4295 0.00243293Z"/>
   <path id="shape110" transform="translate(763.604311560379, 375.684439540181)" opacity="0.9" fill="url(#gradient1)" stroke="#000000" stroke-opacity="0" stroke-width="0" stroke-linecap="square" stroke-linejoin="bevel" d="M51.9957 0.0755605C29.5957 -0.57444 6.69569 3.07556 1.61569 6.93556C-3.46431 10.7956 4.69569 39.5956 8.75569 49.6256C12.8157 59.6556 25.2457 78.6256 41.1057 83.0656C56.9657 87.5056 78.8157 84.9356 84.3957 79.7956C89.9757 74.6556 91.3157 30.0856 91.9257 19.3656C92.5357 8.65556 86.7757 3.42556 80.0157 2.39556C73.2557 1.35556 57.7057 0.23556 51.9957 0.0755605Z"/>
   <path id="shape111" transform="translate(574.561156767462, 361.493284061228)" fill="#231f20" stroke="#231f20" stroke-width="0.75" stroke-linecap="round" stroke-linejoin="round" d="M295.299 6.97672C292.729 5.26672 256.229 1.31672 233.759 0.506716C211.299 -0.303284 192.149 7.55672 172.369 8.55672C152.819 9.53672 137.819 2.76672 112.929 0.386716C88.0288 -1.99328 16.2688 7.33672 7.58884 8.65672C-1.09116 9.97672 -0.501157 29.1467 0.648843 35.2667C1.79884 41.3867 14.3488 39.0867 14.2988 46.1767C14.2488 53.2667 15.7388 110.157 56.4288 113.627C82.7088 115.867 116.449 114.917 126.809 105.307C137.169 95.6967 142.879 60.9367 147.029 55.2167C152.259 47.9867 154.739 36.8767 168.579 37.7567C180.439 38.5167 180.579 46.5967 186.009 59.1867C191.439 71.7767 198.359 96.6967 215.599 105.297C232.849 113.897 273.179 115.397 280.819 105.537C288.459 95.6867 291.589 42.2067 291.269 37.7467C290.949 33.2867 292.739 35.0867 295.309 33.0267C297.869 30.9767 297.869 8.69672 295.299 6.97672ZM132.849 56.6167C128.149 72.2767 125.039 88.0267 116.149 94.7367C107.259 101.437 55.0788 106.627 38.3588 91.4567C21.6488 76.2767 23.5688 30.7767 25.2488 24.4467C26.9288 18.1167 51.2188 12.1167 93.6088 11.9367C104.499 11.8867 120.989 12.5767 128.519 17.7967C139.009 25.0467 137.549 40.9567 132.849 56.6167ZM280.969 33.5467C280.359 44.2567 279.009 88.8367 273.439 93.9767C267.869 99.1167 246.009 101.687 230.149 97.2467C214.289 92.8067 201.859 73.8267 197.799 63.8067C193.739 53.7767 185.579 24.9767 190.659 21.1167C195.739 17.2567 218.639 13.6067 241.039 14.2567C246.739 14.4267 262.289 15.5467 269.049 16.5767C275.809 17.6067 281.579 22.8367 280.969 33.5467Z"/>
   <path id="shape112" transform="translate(602.91, 373.76)" opacity="0.05" fill="#f1f2f2" stroke="#000000" stroke-opacity="0" stroke-width="0" stroke-linecap="square" stroke-linejoin="bevel" d="M0 60.98C1.3 65.42 2.97 69.55 5.1 73.06L50 0C44.76 0.22 39.89 0.54 35.39 0.94Z"/>
   <path id="shape113" transform="translate(638.36, 373.98)" opacity="0.05" fill="#f1f2f2" stroke="#000000" stroke-opacity="0" stroke-width="0" stroke-linecap="square" stroke-linejoin="bevel" d="M64.73 5.3C60.24 2.18 52.55 0.69 44.77 0L0 88.02C9.77 89.18 20.44 88.99 29.67 88L64.77 5.32C64.75 5.32 64.74 5.31 64.73 5.3Z"/>
   <path id="shape114" transform="translate(770.9, 375.683636763441)" opacity="0.05" fill="#f1f2f2" stroke="#000000" stroke-opacity="0" stroke-width="0" stroke-linecap="square" stroke-linejoin="bevel" d="M26.68 0.416363L0 45.6764C0.52 47.1764 1.02 48.5164 1.47 49.6164C2.41 51.9264 3.79 54.7164 5.56 57.6864L41.01 0.00636324C36.14 -0.0336368 31.3 0.116363 26.68 0.416363Z"/>
   <path id="shape115" transform="translate(800.64, 377.73)" opacity="0.05" fill="#f1f2f2" stroke="#000000" stroke-opacity="0" stroke-width="0" stroke-linecap="square" stroke-linejoin="bevel" d="M54.89 17.31C55.5 6.6 49.74 1.37 42.98 0.34C42.24 0.23 41.38 0.11 40.45 0L0 79.52C1.33 80.11 2.69 80.62 4.07 81.01C11.33 83.04 19.84 83.6 27.48 83.12L54.81 18.75C54.84 18.22 54.87 17.74 54.89 17.31Z"/>
   <path id="shape116" transform="translate(579.660538537474, 382.178268620322)" fill="#c8c8c8" stroke="#000000" stroke-opacity="0" stroke-width="0" stroke-linecap="square" stroke-linejoin="bevel" d="M6.85946 0.0117314C-4.16054 -0.328269 -0.200539 6.84173 6.85946 5.99173C13.9195 5.14173 17.8795 0.351731 6.85946 0.0117314Z"/>
   <path id="shape117" transform="translate(860.666844649742, 379.629904912697)" fill="#c8c8c8" stroke="#000000" stroke-opacity="0" stroke-width="0" stroke-linecap="square" stroke-linejoin="bevel" d="M3.62316 0.0100951C-2.19684 -0.279905 -0.106845 5.7801 3.62316 5.0701C7.36316 4.3501 9.45316 0.300095 3.62316 0.0100951Z"/>
  </g>
 </g><g id="Cyborg" transform="matrix(0.72 0 0 0.72 0 0)" display="none" fill="none"/>
</svg>
